<?xml version="1.0" encoding="UTF-8" standalone="no"?>
<svg
   xmlns:dc="http://purl.org/dc/elements/1.1/"
   xmlns:cc="http://creativecommons.org/ns#"
   xmlns:rdf="http://www.w3.org/1999/02/22-rdf-syntax-ns#"
   xmlns:svg="http://www.w3.org/2000/svg"
   xmlns="http://www.w3.org/2000/svg"
   xmlns:sodipodi="http://sodipodi.sourceforge.net/DTD/sodipodi-0.dtd"
   xmlns:inkscape="http://www.inkscape.org/namespaces/inkscape"
   viewBox="0 0 120 130"
   version="1.1"
   id="svg4"
   sodipodi:docname="git-logo.svg"
   width="120"
   height="130"
   inkscape:version="1.0 (4035a4fb49, 2020-05-01)">
  <metadata
     id="metadata10">
    <rdf:RDF>
      <cc:Work
         rdf:about="">
        <dc:format>image/svg+xml</dc:format>
        <dc:type
           rdf:resource="http://purl.org/dc/dcmitype/StillImage" />
        <dc:title></dc:title>
      </cc:Work>
    </rdf:RDF>
  </metadata>
  <defs
     id="defs8" />
  <sodipodi:namedview
     inkscape:document-rotation="0"
     pagecolor="#ffffff"
     bordercolor="#666666"
     borderopacity="1"
     objecttolerance="10"
     gridtolerance="10"
     guidetolerance="10"
     inkscape:pageopacity="0"
     inkscape:pageshadow="2"
     inkscape:window-width="1366"
     inkscape:window-height="743"
     id="namedview6"
     showgrid="false"
     inkscape:zoom="1.4142136"
     inkscape:cx="11.463516"
     inkscape:cy="-4.5614801"
     inkscape:window-x="0"
     inkscape:window-y="0"
     inkscape:window-maximized="1"
     inkscape:current-layer="g834" />
  <path
     id="path896"
     d="m 28.154379,80.266056 c 0.04,0.289853 -0.26133,0.567723 -0.681607,0.625715 -0.472248,0.109449 -0.837564,-0.07642 -0.883559,-0.409745 -0.03999,-0.289842 0.261333,-0.567715 0.681611,-0.625707 0.428773,-0.10343 0.837562,0.07642 0.883555,0.409737 z m -4.59709,-0.03023 c -0.06146,0.303843 0.274386,0.597177 0.721155,0.624136 0.396797,0.09291 0.811569,-0.111984 0.858527,-0.413838 0.04696,-0.301841 -0.274385,-0.597161 -0.727155,-0.667609 -0.390791,-0.04943 -0.79108,0.153443 -0.852527,0.457311 z m 6.3716,-1.130254 c -0.406284,0.159405 -0.658129,0.474789 -0.568659,0.802121 0.08347,0.283841 0.48627,0.420251 0.907036,0.258809 0.406282,-0.159426 0.658133,-0.47478 0.57466,-0.758634 -0.08148,-0.269354 -0.49876,-0.403764 -0.913037,-0.302296 z M 31.801876,22.255259 C 11.701054,25.028878 -1.5695639,42.410978 1.2040551,62.511796 3.4217513,78.583761 15.435117,90.941138 30.551846,93.78785 c 1.901007,0.07735 2.395183,-1.157526 2.265201,-2.099525 -0.123983,-0.898525 -0.851357,-5.84889 -1.2713,-8.892278 0,0 -9.844651,3.573661 -12.870894,-2.624937 0,0 -2.234042,-3.989286 -4.760759,-4.748256 0,0 -3.632695,-1.817354 -0.07608,-2.263811 0,0 3.648579,-0.208078 6.109957,2.967128 3.945709,5.156082 9.042413,2.813536 10.98283,1.571089 0.01337,-2.364761 0.733398,-4.103388 1.644861,-5.203868 -8.225179,0.219323 -16.560816,0.17329 -18.484551,-13.768299 -0.549925,-3.985385 0.275531,-6.13729 2.242347,-9.007894 -0.506786,-0.890019 -2.274557,-4.603978 -0.981015,-9.892265 2.898907,-1.359944 10.539611,2.533098 10.539611,2.533098 2.786478,-1.211502 5.84433,-2.061725 8.931189,-2.487666 3.086858,-0.425942 6.260691,-0.4356 9.271137,-0.02399 0,0 6.298893,-5.831279 9.459764,-5.29272 2.679355,4.75486 1.981428,8.794275 1.734619,9.788279 2.672717,2.245178 4.368923,4.049143 4.916848,8.020029 1.929736,13.985078 -6.452259,16.278818 -14.427464,18.309676 1.491269,0.960915 2.921632,2.978787 3.391568,6.384482 0.673907,4.883898 1.464334,10.933184 1.628311,12.121549 0.129982,0.942001 0.954609,1.994914 2.749138,1.40762 C 67.375546,83.774118 75.303583,68.66512 73.085887,52.593154 70.312268,32.492336 51.902727,19.481635 31.801906,22.255254 Z M 17.308291,75.190797 c -0.168399,0.17092 -0.07893,0.498241 0.205441,0.739598 0.263873,0.199883 0.611194,0.25534 0.773597,0.04094 0.168403,-0.170921 0.07893,-0.498241 -0.20544,-0.739598 -0.263872,-0.199882 -0.611195,-0.25534 -0.773598,-0.04094 z m -1.727145,-0.957908 c -0.07546,0.202402 0.10147,0.414282 0.411311,0.519202 0.251875,0.112929 0.535723,0.02945 0.609176,-0.187401 0.07546,-0.202404 -0.101461,-0.414284 -0.411313,-0.519215 -0.301839,-0.04691 -0.527719,0.02853 -0.609172,0.187433 z m 5.40741,4.511354 c -0.205882,0.220387 -0.05894,0.643155 0.312382,0.872517 0.379316,0.287334 0.805592,0.272818 0.961996,0.01494 0.162402,-0.214396 0.01547,-0.637168 -0.312383,-0.872526 -0.364823,-0.289321 -0.80559,-0.272807 -0.961995,-0.01493 z m -1.946084,-1.902407 c -0.211879,0.176921 -0.159886,0.553727 0.117984,0.855049 0.277872,0.301333 0.68916,0.392254 0.857564,0.221344 0.20588,-0.220398 0.153887,-0.597203 -0.123983,-0.898523 -0.248886,-0.305334 -0.645685,-0.398269 -0.851565,-0.17787 z"
     style="stroke-width:0.146295;fill:#1a1a1a" />
  <g
     id="g834"
     transform="matrix(1.4890984,-0.39743879,0.39743879,1.4890984,-59.632268,3.0623721)"
     style="fill:#ff6600;stroke:#ff7f2a;stroke-opacity:1">
    <path
       style="fill:#ff6600;fill-opacity:1;stroke:#ff6b2a;stroke-width:0.980441;stroke-linecap:butt;stroke-linejoin:miter;stroke-miterlimit:4;stroke-dasharray:none;stroke-opacity:1"
       d="m 61.226065,69.74243 29.665614,33.98933 0.309212,0.78573 -0.07721,0.81015 -0.173104,0.74985 -0.41146,0.9429 -0.741113,0.62654 -0.735703,0.17565 -0.726227,0.0782 -0.908952,-0.0115 -0.835193,-0.35572 -0.603498,-0.61861 -0.548154,-0.69555 z"
       id="path29"
       sodipodi:nodetypes="cccccccccccccc" />
    <ellipse
       ry="2.967643"
       rx="2.9184289"
       transform="matrix(0.99999516,-0.00311014,0.00300784,0.99999548,0,0)"
       cy="71.90374"
       cx="62.575523"
       id="path12"
       style="fill:#1a1a1a;fill-opacity:1;stroke:none;stroke-width:0.117148;stroke-miterlimit:4;stroke-dasharray:none;stroke-opacity:1" />
  </g>
  <rect
     style="fill:#333333;stroke:none;stroke-width:7.33093;stroke-opacity:1"
     id="rect836"
     width="20.323929"
     height="8.4947252"
     x="129.69737"
     y="26.517305"
     ry="4.2473626"
     transform="matrix(0.79765636,0.60311221,-0.55719856,0.83037929,0,0)" />
</svg>
