<?xml version="1.0" encoding="UTF-8" standalone="no"?>
<svg
   xmlns:dc="http://purl.org/dc/elements/1.1/"
   xmlns:cc="http://creativecommons.org/ns#"
   xmlns:rdf="http://www.w3.org/1999/02/22-rdf-syntax-ns#"
   xmlns:svg="http://www.w3.org/2000/svg"
   xmlns="http://www.w3.org/2000/svg"
   xmlns:sodipodi="http://sodipodi.sourceforge.net/DTD/sodipodi-0.dtd"
   xmlns:inkscape="http://www.inkscape.org/namespaces/inkscape"
   version="1.1"
   id="Capa_1"
   x="0px"
   y="0px"
   viewBox="0 0 150 150"
   xml:space="preserve"
   sodipodi:docname="fav.svg"
   inkscape:version="1.0.1 (3bc2e813f5, 2020-09-07)"
   width="150"
   height="150"><metadata
   id="metadata69"><rdf:RDF><cc:Work
       rdf:about=""><dc:format>image/svg+xml</dc:format><dc:type
         rdf:resource="http://purl.org/dc/dcmitype/StillImage" /><dc:title></dc:title></cc:Work></rdf:RDF></metadata><defs
   id="defs67"><rect
     x="701.57208"
     y="152.27734"
     width="976.71362"
     height="314.61307"
     id="rect901" /><filter
     inkscape:collect="always"
     style="color-interpolation-filters:sRGB"
     id="filter1092"
     x="-0.0055468623"
     width="1.0110937"
     y="-0.0056600841"
     height="1.0113202"><feGaussianBlur
       inkscape:collect="always"
       stdDeviation="0.30134278"
       id="feGaussianBlur1094" /></filter></defs><sodipodi:namedview
   pagecolor="#ffffff"
   bordercolor="#666666"
   borderopacity="1"
   objecttolerance="10"
   gridtolerance="10"
   guidetolerance="10"
   inkscape:pageopacity="0"
   inkscape:pageshadow="2"
   inkscape:window-width="1366"
   inkscape:window-height="721"
   id="namedview65"
   showgrid="false"
   inkscape:zoom="1.524699"
   inkscape:cx="53.414727"
   inkscape:cy="81.574215"
   inkscape:window-x="0"
   inkscape:window-y="21"
   inkscape:window-maximized="1"
   inkscape:current-layer="Capa_1"
   inkscape:document-rotation="0" />







<g
   id="g34">
</g>
<g
   id="g36">
</g>
<g
   id="g38">
</g>
<g
   id="g40">
</g>
<g
   id="g42">
</g>
<g
   id="g44">
</g>
<g
   id="g46">
</g>
<g
   id="g48">
</g>
<g
   id="g50">
</g>
<g
   id="g52">
</g>
<g
   id="g54">
</g>
<g
   id="g56">
</g>
<g
   id="g58">
</g>
<g
   id="g60">
</g>
<g
   id="g62">
</g>
<rect
   style="opacity:1;fill:#1a1a1a;fill-opacity:1;stroke-width:0.352169"
   id="rect850"
   width="139.4917"
   height="140.07617"
   x="5.9054003"
   y="4.9916797"
   ry="29.559965"
   rx="30.850254" /><g
   id="g1034"
   style="opacity:1;fill:#f2f2f2;fill-opacity:1;filter:url(#filter1092)"
   transform="matrix(0.87474237,0,0,0.87474237,2.1164884,-13.097327)"><path
     style="color:#000000;font-style:normal;font-variant:normal;font-weight:normal;font-stretch:normal;font-size:medium;line-height:normal;font-family:sans-serif;font-variant-ligatures:normal;font-variant-position:normal;font-variant-caps:normal;font-variant-numeric:normal;font-variant-alternates:normal;font-variant-east-asian:normal;font-feature-settings:normal;font-variation-settings:normal;text-indent:0;text-align:start;text-decoration:none;text-decoration-line:none;text-decoration-style:solid;text-decoration-color:#000000;letter-spacing:normal;word-spacing:normal;text-transform:none;writing-mode:lr-tb;direction:ltr;text-orientation:mixed;dominant-baseline:auto;baseline-shift:baseline;text-anchor:start;white-space:normal;shape-padding:0;shape-margin:0;inline-size:0;clip-rule:nonzero;display:inline;overflow:visible;visibility:visible;isolation:auto;mix-blend-mode:normal;color-interpolation:sRGB;color-interpolation-filters:linearRGB;solid-color:#000000;solid-opacity:1;vector-effect:none;fill:#f2f2f2;fill-opacity:1;fill-rule:nonzero;stroke:none;stroke-width:0.262334;stroke-linecap:butt;stroke-linejoin:miter;stroke-miterlimit:4;stroke-dasharray:none;stroke-dashoffset:0;stroke-opacity:1;color-rendering:auto;image-rendering:auto;shape-rendering:auto;text-rendering:auto;enable-background:accumulate;stop-color:#000000;stop-opacity:1"
     d="m 61.272114,138.8614 c -0.01866,0.52435 -0.636286,0.92254 -1.396573,0.8957 -0.867922,0.048 -1.456116,-0.39265 -1.434904,-0.99565 0.01875,-0.52433 0.636348,-0.92252 1.396644,-0.89572 0.789284,-0.051 1.456116,0.39266 1.434833,0.99567 z m -8.111899,-1.46755 c -0.202061,0.51788 0.301046,1.13938 1.08202,1.32446 0.672372,0.28616 1.468104,0.0519 1.643943,-0.467 0.175887,-0.5188 -0.301047,-1.13936 -1.079246,-1.40308 -0.675146,-0.2076 -1.444724,0.0274 -1.646717,0.54562 z m 11.603725,-0.0368 c -0.76674,0.15669 -1.308663,0.63631 -1.251303,1.24209 0.05996,0.52712 0.729719,0.89199 1.522748,0.73624 0.76674,-0.15668 1.308658,-0.63629 1.248537,-1.16343 -0.06101,-0.50092 -0.756929,-0.86671 -1.519982,-0.8149 z M 85.560625,37.501532 C 49.197324,36.218133 20.406543,62.84311 19.123152,99.20637 c -1.02616,29.0749 16.395375,54.60088 42.224866,64.27996 3.334527,0.72142 4.587384,-1.30808 4.647532,-3.01221 0.05734,-1.62549 0.295222,-10.59454 0.489471,-16.10015 0,0 -18.4908,3.28489 -21.930174,-8.59646 0,0 -2.719519,-7.73466 -6.949792,-9.85272 0,0 -5.858421,-4.32799 0.56199,-4.02267 0,0 6.509607,0.75479 9.881155,7.12123 5.384377,10.32249 15.108796,7.75194 18.918952,6.15395 0.751042,-4.17348 2.557873,-7.02344 4.506559,-8.68716 -14.59806,-2.1427 -29.309609,-4.7882 -28.419429,-30.00913 0.254401,-7.20974 2.374615,-10.75738 6.732247,-15.22358 -0.621559,-1.72817 -2.602015,-8.83305 1.30991,-17.77741 5.539552,-1.51074 17.840058,7.71707 17.840058,7.71707 5.29526,-1.28307 10.958754,-1.84442 16.543013,-1.64734 5.584268,0.19718 11.194174,1.15635 16.38578,2.80952 0,0 12.92141,-8.3639 18.33972,-6.44017 3.27067,9.22415 0.79507,16.14548 0.053,17.82554 4.03098,4.7885 6.47254,8.49718 6.21906,15.68066 -0.89301,25.29964 -16.40617,26.77333 -31.119877,27.90777 2.338908,2.1563 4.245073,6.16105 4.027617,12.32211 -0.311842,8.83519 -0.776262,19.76498 -0.852139,21.91482 -0.06018,1.7041 1.072725,3.81781 4.423579,3.33234 26.52445,-7.77882 45.1778,-32.03159 46.20394,-61.10648 C 150.4437,67.4326 121.92358,38.784926 85.560335,37.501536 Z M 43.672643,126.55895 c -0.350047,0.25002 -0.292692,0.85588 0.135522,1.36975 0.4047,0.43428 1.001146,0.6391 1.35403,0.31029 0.350105,-0.25029 0.292688,-0.85592 -0.135531,-1.36977 -0.404628,-0.43428 -1.001141,-0.63907 -1.354021,-0.31027 z m -2.756509,-2.22356 c -0.195612,0.33436 0.05136,0.7631 0.566916,1.04377 0.410248,0.27696 0.937341,0.21681 1.133804,-0.14353 0.195616,-0.33435 -0.05136,-0.76308 -0.566916,-1.04376 -0.518787,-0.17588 -0.94102,-0.11201 -1.133799,0.14381 z m 8.164943,9.63315 c -0.431452,0.326 -0.301902,1.11806 0.283509,1.63746 0.581754,0.6243 1.339267,0.72978 1.694921,0.32233 0.352822,-0.32881 0.223219,-1.12085 -0.283509,-1.63748 -0.555519,-0.62333 -1.339262,-0.72977 -1.694921,-0.32231 z m -2.852712,-3.95943 c -0.428686,0.24724 -0.452792,0.92904 -0.05459,1.54682 0.398184,0.61782 1.09685,0.90495 1.446901,0.65483 0.431514,-0.32601 0.455554,-1.00769 0.05733,-1.62548 -0.345719,-0.61597 -1.018091,-0.90219 -1.449601,-0.57617 z"
     id="path1036" /><path
     style="color:#000000;font-style:normal;font-variant:normal;font-weight:normal;font-stretch:normal;font-size:medium;line-height:normal;font-family:sans-serif;font-variant-ligatures:normal;font-variant-position:normal;font-variant-caps:normal;font-variant-numeric:normal;font-variant-alternates:normal;font-variant-east-asian:normal;font-feature-settings:normal;font-variation-settings:normal;text-indent:0;text-align:start;text-decoration:none;text-decoration-line:none;text-decoration-style:solid;text-decoration-color:#000000;letter-spacing:normal;word-spacing:normal;text-transform:none;writing-mode:lr-tb;direction:ltr;text-orientation:mixed;dominant-baseline:auto;baseline-shift:baseline;text-anchor:start;white-space:normal;shape-padding:0;shape-margin:0;inline-size:0;clip-rule:nonzero;display:inline;overflow:visible;visibility:visible;isolation:auto;mix-blend-mode:normal;color-interpolation:sRGB;color-interpolation-filters:linearRGB;solid-color:#000000;solid-opacity:1;vector-effect:none;fill:#f2f2f2;fill-opacity:1;fill-rule:nonzero;stroke:none;stroke-width:0.262334;stroke-linecap:butt;stroke-linejoin:miter;stroke-miterlimit:4;stroke-dasharray:none;stroke-dashoffset:0;stroke-opacity:1;color-rendering:auto;image-rendering:auto;shape-rendering:auto;text-rendering:auto;enable-background:accumulate;stop-color:#000000;stop-opacity:1"
     d="M 85.558594,37.371094 C 49.13175,36.088464 20.277868,62.773042 18.992188,99.201172 17.964086,128.33108 35.420433,153.91051 61.302734,163.60938 l 0.0078,0.004 0.0098,0.002 c 1.695428,0.36681 2.892498,0.0343 3.664063,-0.625 0.771565,-0.65928 1.111436,-1.6294 1.142578,-2.51171 0.05749,-1.62971 0.294076,-10.59525 0.488281,-16.09961 l 0.0059,-0.16211 -0.158203,0.0273 c 0,0 -4.608196,0.81703 -9.636719,0.15625 -2.514262,-0.33039 -5.129374,-1.02977 -7.324219,-2.37891 -2.194845,-1.34913 -3.969647,-3.34261 -4.820312,-6.28125 l -0.002,-0.002 -0.002,-0.004 c 0,0 -0.682181,-1.94367 -1.896484,-4.15235 -1.214303,-2.20868 -2.954958,-4.69278 -5.117188,-5.77539 l 0.01953,0.0117 c 0,0 -1.456601,-1.08528 -2.09375,-2.08984 -0.159287,-0.25115 -0.264956,-0.49419 -0.291016,-0.70313 -0.02606,-0.20894 0.01636,-0.37771 0.166016,-0.53125 0.298673,-0.30642 1.102859,-0.53516 2.6875,-0.46094 0,0 0.002,0 0.002,0 0.0031,3.7e-4 6.437283,0.7438 9.777344,7.05078 2.709228,5.19392 6.535002,7.16489 10.15039,7.61719 3.615388,0.4523 7.016899,-0.59766 8.935547,-1.40234 l 0.06641,-0.0274 0.01172,-0.0703 c 0.746391,-4.14763 2.540011,-6.96964 4.462891,-8.61133 l 0.220703,-0.1875 -0.287109,-0.041 c -7.29762,-1.07114 -14.60142,-2.27142 -19.957032,-6.32617 -5.355612,-4.05476 -8.793795,-10.96398 -8.349609,-23.548832 0.253549,-7.185588 2.347075,-10.680147 6.695312,-15.136719 l 0.05664,-0.05859 -0.02734,-0.07813 c -0.611083,-1.699045 -2.565338,-8.737396 1.285156,-17.607422 1.333845,-0.342612 3.091216,-0.07308 4.984376,0.566406 1.919969,0.648538 3.970267,1.658287 5.849609,2.714844 3.758683,2.113113 6.828125,4.416015 6.828125,4.416015 l 0.05078,0.03711 0.05859,-0.01563 c 5.282967,-1.280092 10.935451,-1.839238 16.507812,-1.642578 5.572373,0.19676 11.172011,1.153402 16.351564,2.802734 l 0.0586,0.01953 0.0527,-0.03516 c 0,0 3.22272,-2.085522 7.12109,-3.931641 1.94919,-0.923059 4.06657,-1.786551 6.02735,-2.296875 1.93485,-0.503576 3.70737,-0.648236 5.01367,-0.205078 3.2154,9.146106 0.76883,16.004037 0.0391,17.65625 l -0.0332,0.07422 0.0527,0.06445 c 4.0263,4.782937 6.43988,8.43762 6.1875,15.589844 -0.44556,12.623152 -4.52461,19.261002 -10.3164,22.910162 -5.7918,3.64916 -13.32561,4.30589 -20.681647,4.87304 l -0.300781,0.0215 0.220703,0.20508 c 2.305515,2.12551 4.20276,6.08865 3.986328,12.2207 -0.311814,8.83441 -0.775573,19.76103 -0.851562,21.91406 -0.03118,0.88298 0.244426,1.8741 0.970703,2.58594 0.726276,0.71184 1.897326,1.12777 3.601566,0.88086 h 0.01 l 0.008,-0.004 c 26.57916,-7.79486 45.2708,-32.09824 46.29883,-61.22656 1.28601,-36.434146 -27.29698,-65.143959 -63.72657,-66.42969 -0.002,-7e-5 -0.0039,6.9e-5 -0.0059,0 z m -0.002,0.261718 c 0.002,7e-5 0.0039,-6.9e-5 0.0059,0 36.294076,1.283941 64.747736,29.867795 63.466796,66.158208 -1.0241,29.01708 -19.63429,53.21585 -46.09766,60.98242 -1.64264,0.23641 -2.7131,-0.1618 -3.374995,-0.81055 -0.662845,-0.64967 -0.921576,-1.56755 -0.892579,-2.38867 0.07577,-2.14665 0.539694,-13.0781 0.851563,-21.91406 0.213063,-6.0366 -1.613885,-10.00364 -3.904297,-12.22657 7.280318,-0.56311 14.757488,-1.22583 20.558588,-4.88086 5.86646,-3.6962 9.99006,-10.44655 10.4375,-23.123042 0.25348,-7.183404 -2.19856,-10.944591 -6.20312,-15.708985 0.77468,-1.77757 3.18026,-8.661699 -0.0762,-17.845703 l -0.0195,-0.05859 -0.0605,-0.02148 c -1.39831,-0.496459 -3.24068,-0.325452 -5.22657,0.191406 -1.98588,0.516858 -4.11576,1.385051 -6.07421,2.3125 -3.888,1.841205 -7.05232,3.891296 -7.09961,3.921875 -5.188302,-1.646317 -10.786769,-2.605828 -16.363281,-2.802734 -5.575472,-0.19677 -11.226944,0.366613 -16.517578,1.642578 -0.04331,-0.03246 -3.058946,-2.29431 -6.808594,-4.402344 C 60.269974,65.59665 58.208046,64.580609 56.263672,63.923828 54.319298,63.267047 52.491977,62.96367 51.0625,63.353516 l -0.06055,0.01563 -0.02539,0.05859 c -3.894806,8.90522 -1.981443,15.967797 -1.333984,17.796875 -4.327815,4.448166 -6.464636,8.050348 -6.71875,15.251953 -0.445994,12.636086 3.025993,19.658676 8.453125,23.767576 5.372859,4.06781 12.635055,5.27042 19.863281,6.33398 -1.89682,1.68968 -3.629945,4.46098 -4.375,8.49415 -1.89841,0.79111 -5.228365,1.80775 -8.75,1.36718 -3.545455,-0.44355 -7.276023,-2.34798 -9.951172,-7.47656 -3.40222,-6.42436 -9.982421,-7.19141 -9.982421,-7.19141 h -0.0039 -0.0039 c -1.618844,-0.077 -2.488508,0.12051 -2.896484,0.53907 -0.203988,0.20927 -0.273715,0.47766 -0.240235,0.74609 0.03348,0.26843 0.158339,0.54173 0.330079,0.8125 0.686958,1.0831 2.160156,2.16211 2.160156,2.16211 l 0.0098,0.006 0.0098,0.006 c 2.068044,1.03545 3.800882,3.47785 5.003906,5.66601 1.203025,2.18817 1.88086,4.11133 1.88086,4.11133 0.869763,2.99856 2.693729,5.04823 4.93164,6.42383 2.239504,1.37658 4.891327,2.08441 7.429688,2.41797 4.940737,0.64924 9.317731,-0.0992 9.55664,-0.14063 -0.193253,5.51875 -0.427724,14.34133 -0.484375,15.94727 -0.02901,0.82182 -0.347249,1.72112 -1.050781,2.32227 -0.702206,0.60001 -1.797672,0.91781 -3.431641,0.5664 C 35.613028,153.69489 18.229932,128.22647 19.253986,99.21122 20.535018,62.91481 49.259766,36.352037 85.556721,37.633094 Z m -44.517579,86.232418 -0.228515,0.39063 -0.0078,0.0137 c -0.01351,0.0231 0.01206,0.0502 0.002,0.0742 l -0.01953,-0.006 0.0059,0.38086 0.02148,-0.0293 c 0.01426,0.0861 -0.0384,0.17187 0.0059,0.25196 0.117033,0.21174 0.324459,0.39987 0.595703,0.54882 0.229449,0.15362 0.492008,0.21503 0.732422,0.18555 0.240836,-0.0295 0.463291,-0.15581 0.583985,-0.375 0.121122,-0.20866 0.102071,-0.45699 -0.01563,-0.66992 -0.118039,-0.21356 -0.326878,-0.40514 -0.601563,-0.55469 l -0.0098,-0.006 -0.01172,-0.002 c -0.274213,-0.093 -0.527535,-0.12513 -0.748047,-0.0957 -0.12446,0.0166 -0.202526,0.10179 -0.300781,0.16015 z m 0.339844,0.36719 c 0.165343,-0.0221 0.378225,0.003 0.617188,0.082 0.233871,0.1299 0.404434,0.29167 0.488281,0.44336 0.08543,0.15457 0.09285,0.2868 0.01953,0.41211 l -0.002,0.002 c -0.0761,0.13957 -0.21522,0.22286 -0.388672,0.24414 -0.173452,0.0213 -0.376757,-0.0251 -0.55664,-0.14649 l -0.0059,-0.002 -0.0059,-0.004 c -0.24087,-0.13113 -0.412613,-0.29465 -0.498047,-0.44922 -0.08382,-0.15164 -0.08655,-0.28107 -0.01758,-0.40429 0.07221,-0.092 0.184784,-0.15574 0.349609,-0.17774 z m 2.984375,2.06836 c -0.271411,-0.0717 -0.55871,-0.0334 -0.771484,0.16016 -0.213068,0.15687 -0.300439,0.42069 -0.273438,0.69726 0.02732,0.27979 0.160179,0.57932 0.388672,0.85352 l 0.002,0.004 0.0039,0.002 c 0.217249,0.23313 0.483637,0.40611 0.757812,0.47851 0.270754,0.0715 0.558854,0.0321 0.771485,-0.16015 0.211908,-0.15714 0.302338,-0.41943 0.27539,-0.69532 -0.02733,-0.27976 -0.162136,-0.58128 -0.390625,-0.85546 l -0.002,-0.002 -0.002,-0.004 c -0.217219,-0.23314 -0.485583,-0.40612 -0.759766,-0.47852 z m -0.06641,0.25391 c 0.212218,0.056 0.44401,0.20299 0.630859,0.40234 0.197621,0.23855 0.307331,0.49609 0.328125,0.70899 0.02091,0.21408 -0.03835,0.37273 -0.169921,0.46679 l -0.0078,0.004 -0.0059,0.006 c -0.139538,0.13002 -0.31976,0.15793 -0.533204,0.10156 -0.212678,-0.0562 -0.445708,-0.2023 -0.632812,-0.40234 -6.73e-4,-7.2e-4 -0.0013,-10e-4 -0.002,-0.002 -0.196361,-0.23787 -0.3035,-0.49481 -0.324219,-0.70703 -0.0209,-0.21411 0.03648,-0.37288 0.167969,-0.46679 l 0.0078,-0.006 0.0059,-0.006 c 0.139533,-0.13002 0.321706,-0.15598 0.535156,-0.0996 z m 2.738281,3.26758 c -0.294007,-0.11949 -0.62152,-0.10576 -0.876953,0.082 -0.252372,0.15056 -0.387575,0.42674 -0.398437,0.73437 -0.011,0.31148 0.09303,0.65991 0.304687,0.98828 0.213004,0.3305 0.504138,0.5718 0.798828,0.70117 0.294691,0.12938 0.606056,0.1531 0.833985,-0.01 l 0.002,-0.002 v -0.002 c 0.249906,-0.1888 0.381286,-0.48256 0.392578,-0.80273 0.01123,-0.31828 -0.09165,-0.66552 -0.300781,-0.99219 -0.186348,-0.33072 -0.459402,-0.57678 -0.75586,-0.69726 z m -0.841797,0.0566 -0.03125,0.0156 c -0.0021,10e-4 -0.0018,0.005 -0.0039,0.006 l 0.07031,-0.0215 z m 0.742188,0.1875 c 0.23324,0.0948 0.469566,0.30008 0.628906,0.58398 l 0.002,0.002 0.002,0.004 c 0.186558,0.28942 0.27077,0.58909 0.261719,0.8457 -0.009,0.25594 -0.108377,0.46434 -0.289062,0.60157 -0.12251,0.0855 -0.332202,0.0898 -0.572266,-0.0156 -0.241701,-0.10611 -0.500367,-0.31619 -0.685547,-0.60351 -0.186543,-0.28941 -0.270394,-0.59026 -0.261719,-0.83594 0.0086,-0.24496 0.102371,-0.42516 0.271485,-0.52344 4.97e-4,-2.9e-4 -4.99e-4,-0.002 0,-0.002 l 0.01367,-0.01 c 0.17488,-0.13213 0.395666,-0.14166 0.628906,-0.0469 z m 2.939453,3.54687 c -0.338221,-0.0585 -0.665507,0.0302 -0.878906,0.26563 -0.250538,0.19896 -0.339564,0.52592 -0.283203,0.85742 0.05696,0.335 0.250964,0.6835 0.560547,0.96094 0.306941,0.328 0.660894,0.52678 1,0.58593 0.33742,0.0589 0.664882,-0.0297 0.876953,-0.26758 0.215773,-0.206 0.274732,-0.52818 0.21875,-0.85742 -0.05635,-0.33142 -0.226297,-0.67912 -0.498047,-0.95703 -0.295286,-0.33039 -0.653428,-0.52862 -0.996094,-0.58789 z m -0.04297,0.25977 c 0.276208,0.0478 0.585862,0.2143 0.845703,0.50586 l 0.002,0.002 0.002,0.002 c 0.233814,0.23839 0.382901,0.54321 0.429687,0.81836 0.04679,0.27515 -0.0085,0.50773 -0.140625,0.63086 l -0.0059,0.006 -0.0039,0.004 c -0.143801,0.16474 -0.367898,0.23117 -0.640626,0.18359 -0.272727,-0.0476 -0.585344,-0.21569 -0.859374,-0.50977 l -0.0039,-0.004 -0.0059,-0.004 c -0.271539,-0.24092 -0.434606,-0.54469 -0.480469,-0.81445 -0.04586,-0.26976 0.01953,-0.4927 0.189453,-0.62109 l 0.01172,-0.008 0.0078,-0.01 c 0.14272,-0.16351 0.376135,-0.22942 0.652343,-0.18164 z m 5.013672,2.84961 c -0.364245,-0.11201 -0.750642,-0.10448 -1.080078,0.002 -0.329436,0.10643 -0.609485,0.31572 -0.728516,0.62109 -0.120888,0.30984 -0.02618,0.64846 0.19336,0.91797 0.21767,0.26722 0.56296,0.47639 0.974609,0.57617 0.3614,0.15006 0.751078,0.1674 1.082031,0.0723 0.335117,-0.0963 0.617361,-0.30841 0.722657,-0.61914 0.104624,-0.3086 0.01239,-0.64026 -0.201172,-0.91797 -0.213563,-0.27771 -0.54798,-0.51111 -0.958985,-0.65039 l -0.002,-0.002 z m -0.08008,0.25 c 0.367195,0.12443 0.658502,0.33235 0.833984,0.56054 0.175483,0.2282 0.233372,0.46559 0.16211,0.67578 -0.07054,0.20818 -0.272073,0.37219 -0.546875,0.45118 -0.274802,0.079 -0.614712,0.0682 -0.921875,-0.0625 l -0.0098,-0.004 -0.0098,-0.004 c -0.364581,-0.0864 -0.663099,-0.2752 -0.839844,-0.49218 -0.176746,-0.21698 -0.231564,-0.44821 -0.150391,-0.65625 0.08296,-0.21285 0.287863,-0.37807 0.5625,-0.4668 0.274056,-0.0885 0.609573,-0.0969 0.919922,-0.002 z m 9.980469,0.2539 -0.0078,0.002 c -0.403152,0.0824 -0.753145,0.24931 -1,0.48632 -0.246855,0.23701 -0.388109,0.55177 -0.355469,0.89649 v 0.002 c 0.0358,0.31468 0.252663,0.5739 0.556641,0.72656 0.303978,0.15267 0.698721,0.20796 1.121094,0.125 h 0.002 c 0.403152,-0.0824 0.750228,-0.25094 0.996094,-0.47656 0.245865,-0.22562 0.391064,-0.51993 0.355468,-0.83203 -0.03728,-0.30607 -0.262325,-0.55386 -0.564453,-0.71484 -0.302127,-0.16099 -0.688719,-0.24235 -1.09375,-0.21485 z m 0.03711,0.26367 c 0.354026,-0.022 0.692147,0.0508 0.941406,0.1836 0.251848,0.13419 0.405956,0.31882 0.429688,0.51367 0.02452,0.21504 -0.07169,0.42424 -0.273438,0.60938 -0.201748,0.18513 -0.507506,0.33585 -0.871093,0.41015 -0.370657,0.0728 -0.707024,0.0211 -0.951172,-0.10156 -0.24359,-0.12234 -0.391346,-0.30769 -0.416016,-0.51953 v -0.002 c -0.02405,-0.26025 0.07639,-0.48674 0.277344,-0.67968 0.19963,-0.19167 0.504032,-0.33906 0.863281,-0.41407 z m -4.949219,0.2461 c -0.400734,-0.0125 -0.76864,0.0823 -1.044922,0.25976 -0.278347,0.17881 -0.469298,0.44739 -0.480468,0.75977 v 0.002 c -0.01214,0.34519 0.156519,0.65265 0.439453,0.85352 0.281443,0.19981 0.674304,0.29923 1.128906,0.27539 0.401556,0.0129 0.768159,-0.082 1.044922,-0.25977 0.278345,-0.1788 0.469351,-0.44932 0.480469,-0.76172 0.01239,-0.35089 -0.177787,-0.6562 -0.46875,-0.85546 -0.289391,-0.19819 -0.680774,-0.29912 -1.09961,-0.27344 z m -0.002,0.25976 h 0.0078 0.0059 c 0.367847,-0.0238 0.705,0.0699 0.939453,0.23047 0.234453,0.16057 0.364367,0.37875 0.355469,0.63086 -0.0075,0.21195 -0.134171,0.40416 -0.359375,0.54883 -0.225204,0.14467 -0.544355,0.23327 -0.900391,0.2207 l -0.0059,-0.002 -0.0059,0.002 c -0.410233,0.0227 -0.74591,-0.0723 -0.96875,-0.23047 -0.222841,-0.1582 -0.337194,-0.37305 -0.328125,-0.63086 0.0076,-0.21194 0.134161,-0.40415 0.359375,-0.54882 0.225213,-0.14468 0.544348,-0.23326 0.90039,-0.22071 z"
     id="path1038" /></g></svg>
