<?xml version="1.0" encoding="UTF-8" standalone="no"?>
<svg
   xmlns:dc="http://purl.org/dc/elements/1.1/"
   xmlns:cc="http://creativecommons.org/ns#"
   xmlns:rdf="http://www.w3.org/1999/02/22-rdf-syntax-ns#"
   xmlns:svg="http://www.w3.org/2000/svg"
   xmlns="http://www.w3.org/2000/svg"
   xmlns:sodipodi="http://sodipodi.sourceforge.net/DTD/sodipodi-0.dtd"
   xmlns:inkscape="http://www.inkscape.org/namespaces/inkscape"
   sodipodi:docname="login-aside.svg"
   inkscape:version="1.0 (4035a4fb49, 2020-05-01)"
   id="svg2093"
   version="1.1"
   viewBox="0 0 120 200"
   height="200mm"
   width="120mm">
  <defs
     id="defs2087">
    <inkscape:path-effect
       effect="spiro"
       id="path-effect477"
       is_visible="true"
       lpeversion="1" />
    <inkscape:path-effect
       effect="spiro"
       id="path-effect385"
       is_visible="true"
       lpeversion="1" />
    <clipPath
       clipPathUnits="userSpaceOnUse"
       id="clipPath122">
      <path
         d="M 44.1395,368 H 213.194 V 211.333 H 44.1395 Z"
         id="path120" />
    </clipPath>
    <linearGradient
       x1="0"
       y1="0"
       x2="1"
       y2="0"
       gradientUnits="userSpaceOnUse"
       gradientTransform="matrix(0,174.0002,174.0002,0,128.66664,223.33344)"
       spreadMethod="pad"
       id="linearGradient134">
      <stop
         style="stop-opacity:1;stop-color:#ffffff"
         offset="0"
         id="stop128" />
      <stop
         style="stop-opacity:1;stop-color:#ffffff"
         offset="0.33554817"
         id="stop130" />
      <stop
         style="stop-opacity:1;stop-color:#67b8ef"
         offset="1"
         id="stop132" />
    </linearGradient>
    <clipPath
       clipPathUnits="userSpaceOnUse"
       id="clipPath156">
      <path
         d="M 57.8212,236.114 H 176.104 V 201.261 H 57.8212 Z"
         id="path154" />
    </clipPath>
    <clipPath
       clipPathUnits="userSpaceOnUse"
       id="clipPath184">
      <path
         d="m 140.579,386.919 h 53.049 V 264.342 h -53.049 z"
         id="path182" />
    </clipPath>
    <clipPath
       clipPathUnits="userSpaceOnUse"
       id="clipPath300">
      <path
         d="m 138.083,246.706 h 52.263 v -13.035 h -52.263 z"
         id="path298" />
    </clipPath>
    <clipPath
       clipPathUnits="userSpaceOnUse"
       id="clipPath356">
      <path
         d="m 68.7069,301.01 h 9.567 v -26.542 h -9.567 z"
         id="path354" />
    </clipPath>
    <clipPath
       clipPathUnits="userSpaceOnUse"
       id="clipPath372">
      <path
         d="m 84.8903,277.524 h 11.803 v -18.392 h -11.803 z"
         id="path370" />
    </clipPath>
    <clipPath
       clipPathUnits="userSpaceOnUse"
       id="clipPath388">
      <path
         d="M 83.3557,301.557 H 95.4256 V 281.052 H 83.3557 Z"
         id="path386" />
    </clipPath>
    <clipPath
       clipPathUnits="userSpaceOnUse"
       id="clipPath404">
      <path
         d="M 58.2665,279.673 H 74.3372 V 255.846 H 58.2665 Z"
         id="path402" />
    </clipPath>
    <clipPath
       clipPathUnits="userSpaceOnUse"
       id="clipPath848">
      <path
         d="M 0,500 H 750 V 0 H 0 Z"
         id="path846" />
    </clipPath>
    <clipPath
       clipPathUnits="userSpaceOnUse"
       id="clipPath856">
      <path
         d="M 528.139,367 H 697.194 V 210.333 H 528.139 Z"
         id="path854" />
    </clipPath>
    <linearGradient
       x1="0"
       y1="0"
       x2="1"
       y2="0"
       gradientUnits="userSpaceOnUse"
       gradientTransform="matrix(0,174.0002,174.0002,0,612.66663,222.33344)"
       spreadMethod="pad"
       id="linearGradient868">
      <stop
         style="stop-opacity:1;stop-color:#ffffff"
         offset="0"
         id="stop862" />
      <stop
         style="stop-opacity:1;stop-color:#ffffff"
         offset="0.33554817"
         id="stop864" />
      <stop
         style="stop-opacity:1;stop-color:#67b8ef"
         offset="1"
         id="stop866" />
    </linearGradient>
    <clipPath
       clipPathUnits="userSpaceOnUse"
       id="clipPath890">
      <path
         d="m 523.584,213.595 h 178.165 v -7.024 H 523.584 Z"
         id="path888" />
    </clipPath>
    <clipPath
       clipPathUnits="userSpaceOnUse"
       id="clipPath954">
      <path
         d="m 551.156,297 h 7.344 v -14.125 h -7.344 z"
         id="path952" />
    </clipPath>
    <clipPath
       clipPathUnits="userSpaceOnUse"
       id="clipPath1054">
      <path
         d="m 591.316,318.223 h 10.199 v -13.524 h -10.199 z"
         id="path1052" />
    </clipPath>
    <clipPath
       clipPathUnits="userSpaceOnUse"
       id="clipPath1074">
      <path
         d="M 679.277,270.601 H 701.5 v -38.975 h -22.223 z"
         id="path1072" />
    </clipPath>
    <clipPath
       clipPathUnits="userSpaceOnUse"
       id="clipPath1094">
      <path
         d="m 654.806,260.75 h 22.966 v -27.862 h -22.966 z"
         id="path1092" />
    </clipPath>
    <clipPath
       clipPathUnits="userSpaceOnUse"
       id="clipPath1114">
      <path
         d="m 675.023,276.383 h 14.211 v -45.752 h -14.211 z"
         id="path1112" />
    </clipPath>
    <clipPath
       id="clipPath848-3"
       clipPathUnits="userSpaceOnUse">
      <path
         id="path846-6"
         d="M 0,500 H 750 V 0 H 0 Z" />
    </clipPath>
    <clipPath
       id="clipPath856-7"
       clipPathUnits="userSpaceOnUse">
      <path
         id="path854-5"
         d="M 528.139,367 H 697.194 V 210.333 H 528.139 Z" />
    </clipPath>
    <clipPath
       id="clipPath890-2"
       clipPathUnits="userSpaceOnUse">
      <path
         id="path888-9"
         d="m 523.584,213.595 h 178.165 v -7.024 H 523.584 Z" />
    </clipPath>
    <clipPath
       id="clipPath954-1"
       clipPathUnits="userSpaceOnUse">
      <path
         id="path952-2"
         d="m 551.156,297 h 7.344 v -14.125 h -7.344 z" />
    </clipPath>
    <clipPath
       id="clipPath1054-7"
       clipPathUnits="userSpaceOnUse">
      <path
         id="path1052-0"
         d="m 591.316,318.223 h 10.199 v -13.524 h -10.199 z" />
    </clipPath>
    <clipPath
       id="clipPath1074-9"
       clipPathUnits="userSpaceOnUse">
      <path
         id="path1072-3"
         d="M 679.277,270.601 H 701.5 v -38.975 h -22.223 z" />
    </clipPath>
    <clipPath
       id="clipPath1094-6"
       clipPathUnits="userSpaceOnUse">
      <path
         id="path1092-0"
         d="m 654.806,260.75 h 22.966 v -27.862 h -22.966 z" />
    </clipPath>
    <clipPath
       id="clipPath1114-6"
       clipPathUnits="userSpaceOnUse">
      <path
         id="path1112-2"
         d="m 675.023,276.383 h 14.211 v -45.752 h -14.211 z" />
    </clipPath>
    <clipPath
       id="clipPath122-6"
       clipPathUnits="userSpaceOnUse">
      <path
         id="path120-1"
         d="M 44.1395,368 H 213.194 V 211.333 H 44.1395 Z" />
    </clipPath>
    <clipPath
       id="clipPath156-2"
       clipPathUnits="userSpaceOnUse">
      <path
         id="path154-0"
         d="M 57.8212,236.114 H 176.104 V 201.261 H 57.8212 Z" />
    </clipPath>
    <clipPath
       id="clipPath184-2"
       clipPathUnits="userSpaceOnUse">
      <path
         id="path182-3"
         d="m 140.579,386.919 h 53.049 V 264.342 h -53.049 z" />
    </clipPath>
    <clipPath
       id="clipPath300-7"
       clipPathUnits="userSpaceOnUse">
      <path
         id="path298-5"
         d="m 138.083,246.706 h 52.263 v -13.035 h -52.263 z" />
    </clipPath>
    <clipPath
       id="clipPath356-9"
       clipPathUnits="userSpaceOnUse">
      <path
         id="path354-2"
         d="m 68.7069,301.01 h 9.567 v -26.542 h -9.567 z" />
    </clipPath>
    <clipPath
       id="clipPath372-2"
       clipPathUnits="userSpaceOnUse">
      <path
         id="path370-8"
         d="m 84.8903,277.524 h 11.803 v -18.392 h -11.803 z" />
    </clipPath>
    <clipPath
       id="clipPath388-9"
       clipPathUnits="userSpaceOnUse">
      <path
         id="path386-7"
         d="M 83.3557,301.557 H 95.4256 V 281.052 H 83.3557 Z" />
    </clipPath>
    <clipPath
       id="clipPath404-3"
       clipPathUnits="userSpaceOnUse">
      <path
         id="path402-6"
         d="M 58.2665,279.673 H 74.3372 V 255.846 H 58.2665 Z" />
    </clipPath>
    <clipPath
       clipPathUnits="userSpaceOnUse"
       id="clipPath122-6-1">
      <path
         d="M 44.1395,368 H 213.194 V 211.333 H 44.1395 Z"
         id="path120-1-2" />
    </clipPath>
    <clipPath
       clipPathUnits="userSpaceOnUse"
       id="clipPath156-2-9">
      <path
         d="M 57.8212,236.114 H 176.104 V 201.261 H 57.8212 Z"
         id="path154-0-4" />
    </clipPath>
    <clipPath
       clipPathUnits="userSpaceOnUse"
       id="clipPath184-2-7">
      <path
         d="m 140.579,386.919 h 53.049 V 264.342 h -53.049 z"
         id="path182-3-8" />
    </clipPath>
    <clipPath
       clipPathUnits="userSpaceOnUse"
       id="clipPath300-7-4">
      <path
         d="m 138.083,246.706 h 52.263 v -13.035 h -52.263 z"
         id="path298-5-5" />
    </clipPath>
    <clipPath
       clipPathUnits="userSpaceOnUse"
       id="clipPath356-9-0">
      <path
         d="m 68.7069,301.01 h 9.567 v -26.542 h -9.567 z"
         id="path354-2-3" />
    </clipPath>
    <clipPath
       clipPathUnits="userSpaceOnUse"
       id="clipPath372-2-6">
      <path
         d="m 84.8903,277.524 h 11.803 v -18.392 h -11.803 z"
         id="path370-8-1" />
    </clipPath>
    <clipPath
       clipPathUnits="userSpaceOnUse"
       id="clipPath388-9-0">
      <path
         d="M 83.3557,301.557 H 95.4256 V 281.052 H 83.3557 Z"
         id="path386-7-6" />
    </clipPath>
    <clipPath
       clipPathUnits="userSpaceOnUse"
       id="clipPath404-3-3">
      <path
         d="M 58.2665,279.673 H 74.3372 V 255.846 H 58.2665 Z"
         id="path402-6-2" />
    </clipPath>
    <clipPath
       clipPathUnits="userSpaceOnUse"
       id="clipPath848-3-0">
      <path
         d="M 0,500 H 750 V 0 H 0 Z"
         id="path846-6-6" />
    </clipPath>
    <clipPath
       clipPathUnits="userSpaceOnUse"
       id="clipPath856-7-1">
      <path
         d="M 528.139,367 H 697.194 V 210.333 H 528.139 Z"
         id="path854-5-5" />
    </clipPath>
    <clipPath
       clipPathUnits="userSpaceOnUse"
       id="clipPath890-2-6">
      <path
         d="m 523.584,213.595 h 178.165 v -7.024 H 523.584 Z"
         id="path888-9-5" />
    </clipPath>
    <clipPath
       clipPathUnits="userSpaceOnUse"
       id="clipPath954-1-6">
      <path
         d="m 551.156,297 h 7.344 v -14.125 h -7.344 z"
         id="path952-2-9" />
    </clipPath>
    <clipPath
       clipPathUnits="userSpaceOnUse"
       id="clipPath1054-7-3">
      <path
         d="m 591.316,318.223 h 10.199 v -13.524 h -10.199 z"
         id="path1052-0-7" />
    </clipPath>
    <clipPath
       clipPathUnits="userSpaceOnUse"
       id="clipPath1074-9-4">
      <path
         d="M 679.277,270.601 H 701.5 v -38.975 h -22.223 z"
         id="path1072-3-5" />
    </clipPath>
    <clipPath
       clipPathUnits="userSpaceOnUse"
       id="clipPath1094-6-2">
      <path
         d="m 654.806,260.75 h 22.966 v -27.862 h -22.966 z"
         id="path1092-0-5" />
    </clipPath>
    <clipPath
       clipPathUnits="userSpaceOnUse"
       id="clipPath1114-6-4">
      <path
         d="m 675.023,276.383 h 14.211 v -45.752 h -14.211 z"
         id="path1112-2-7" />
    </clipPath>
    <clipPath
       clipPathUnits="userSpaceOnUse"
       id="clipPath471">
      <path
         id="path473"
         style="fill:#ff0000;fill-opacity:1;fill-rule:nonzero;stroke:none"
         d="M 953.71875,36.453125 V 409.86914 c 5.76221,-10.38556 2.07226,-25.65712 13.45313,-33.07031 15.0355,-20.26157 30.82077,-39.57768 46.95312,-58.99219 6.299,-7.5805 39.5216,-47.20777 46.4453,-57.44336 5.9818,-8.84313 10.6122,-18.52848 15.918,-27.79297 1.3626,-2.37934 2.7486,-4.65335 4.1504,-6.84375 -37.8003,-7.95555 -43.6151,-58.63932 12.6445,-81.75 1.3819,-0.56768 2.7678,-1.13412 4.1563,-1.69336 -18.2623,-22.91147 -36.1894,-46.085446 -53.0879,-70.072262 -6.2956,-8.936236 -15.1428,-21.74846 -23.9786,-35.757813 z m 100.68745,0 c 3.1771,4.801757 6.4055,9.567229 9.6817,14.298828 3.821,-6.132096 10.0799,-10.112146 18.8711,-10.21875 9.7281,-0.117955 16.0503,7.354137 22.1621,13.126953 18.7073,17.669864 0.5749,38.386307 -15.6875,24.986328 0.4794,1.61016 1.0692,3.172034 1.9199,4.619141 11.5775,19.693425 28.8643,31.693975 46.5567,45.824215 0.1426,-0.059 0.2899,-0.10559 0.4296,-0.17187 4.8649,-2.30709 9.442,-5.19475 14.3223,-7.46875 22.8763,-10.65922 46.7354,-18.85752 70.5274,-27.177736 0.021,-0.04342 0.035,-0.08986 0.057,-0.132812 0.1519,-0.298129 1.01,-0.80256 0.8711,-0.498047 -0.056,0.123761 -0.12,0.244019 -0.1777,0.367187 0.2135,-0.07472 0.427,-0.149862 0.6406,-0.224609 -3.9738,-4.59101 -0.7301,-4.94033 7.8652,-2.744141 6.413,-2.180675 12.8728,-4.223724 19.2246,-6.576171 2.5481,-0.943699 4.3279,-1.661062 5.5977,-2.222657 -2.9548,-4.192176 -5.922,-8.649459 -8.8477,-13.433593 -1.8495,-3.024405 6.2979,-3.317916 9.6524,-4.464844 16.6582,-5.695646 26.5716,-5.993124 43.5839,-4.1875 11.7276,3.557529 22.3317,-1.725829 33.6622,-3.326172 0.7819,-0.110445 1.5655,-0.203655 2.3496,-0.296875 4.6407,-3.01875 9.6991,-5.861419 16.166,-8.798828 14.3083,-6.49923 28.7605,-8.908053 43.7363,-11.279297 z m 169.5333,57.554687 c -0.2502,0.0875 -0.4999,0.176201 -0.75,0.263672 -0.4698,0.980908 -0.6716,2.073883 -1,3.113282 0.6231,-1.10558 1.2121,-2.229054 1.75,-3.376954 z m 187.5,-57.554687 c 5.0148,17.581069 7.9474,35.68229 11.0332,53.746094 2.3983,7.284344 4.7359,14.588651 6.9492,21.931641 0.2206,0.73201 -1.5146,0.23743 -2.2481,0.45312 -0.1976,0.0581 -0.3942,0.11949 -0.5918,0.17774 0.016,0.0793 0.031,0.15895 0.047,0.23828 -2.6644,0.98888 -5.3962,1.67979 -8.1621,2.21094 -2.2253,0.68686 -4.4493,1.38182 -6.6641,2.10156 -12.8377,4.17191 -25.5893,8.62181 -38.4922,12.58203 -2.4704,2.07628 -4.8367,4.15348 -7.0507,5.93555 -12.7725,10.41545 -25.0384,19.17668 -42.3243,21.03906 -12.1653,1.31069 -18.4237,-1.45827 -27.3906,-4.21875 -1.1115,0.001 -5.3614,-0.38572 -7.7344,0.67969 -1.7792,0.79881 7.1282,-0.97887 5.8321,0.47851 -2.4093,2.70905 -6.4815,3.21596 -9.9238,4.44141 -3.1054,10.4179 -9.6627,26.01362 -10.6856,28.37695 -3.8287,8.84599 -7.7168,17.68336 -12.1953,26.21875 -3.6726,6.99943 -8.1498,13.54715 -12.2246,20.32032 -3.6227,7.01899 -7.2445,14.03765 -10.8672,21.05664 -18.5025,35.84902 -45.8519,44.04079 -63.7227,34.24609 -1.4379,3.09668 -3.014,6.23144 -4.7441,9.4043 -3.3561,6.15485 -6.1271,12.66723 -10.0684,18.46484 -28.1118,41.35233 -62.3362,77.8863 -92.8066,117.40234 0.4178,5.17928 -4.3787,10.59976 -6.5742,15.63868 -5.0171,11.51484 -9.9749,20.25784 -17.1426,29.10547 -0.7083,6.63312 -1.8226,12.75144 -2.5859,17.08007 -1.7316,9.8194 -10.0833,19.52322 -3.2442,11.07813 1.7953,18.00601 2.2488,36.07585 2.002,54.1582 -0.6241,29.95952 -0.2603,59.93665 -0.2071,89.90234 0.022,20.36134 -0.027,40.72265 -0.019,61.08399 0.01,15.14661 0,30.2948 0,45.44141 -10e-5,28.35579 10e-5,56.71061 0,85.0664 -10e-5,17.11805 0,34.23547 0,51.35352 v 6.97851 18.11133 c 4.2588,11.57681 0.6703,1.29303 6.4629,26.15625 0.4248,1.82325 -0.084,4.75892 1.6914,5.35352 1.4706,0.49254 -0.5522,-5.78398 0.4805,-4.62696 3.2955,3.69234 17.2442,29.30336 19.582,33.50196 5.7021,13.38145 12.3302,26.13005 14.3965,40.69335 20.0675,16.2271 29.0939,40.7167 40.1387,63.2813 7.6459,15.6207 3.5646,10.4958 11.4472,18.6484 -5.7344,-15.47 -0.6598,-4.0513 3.8282,4.4766 2.6955,2.0904 7.6224,5.8249 16.2168,12.1269 12.9718,9.5119 12.6325,9.8078 23.9941,20.4414 1.7235,1.9509 3.3744,3.9695 5.0859,5.9317 -0.2811,-0.4766 -0.3203,-0.8081 0.1114,-0.8145 0.842,-0.012 8.9279,6.2803 13.4218,9.8145 -1.0963,-0.869 -1.9937,-1.6009 -1.3574,-1.2129 5.4362,3.3145 10.5939,7.0645 15.8906,10.5976 17.8818,11.8974 38.6776,18.0541 58.6426,25.7071 46.9876,17.3874 93.7925,35.4244 139.3477,56.3066 23.7321,9.7639 48.6724,17.9192 74.3906,20.0078 35.6339,11.6715 20.4768,4.5439 46.4062,19.2813 14.6498,8.3264 21.6238,17.8854 23.1778,27.8906 h 570.7656 V 36.453125 Z m -321.0957,25.917969 c -0.4713,0.04776 -1.1656,0.211921 -1.5352,0.207031 l -0.7363,3 c 0.9952,-0.913579 1.9442,-1.864502 2.707,-2.972656 0.093,-0.135287 0.057,-0.20529 -0.059,-0.232422 -0.087,-0.02035 -0.2204,-0.01762 -0.3769,-0.002 z m -63.6602,432.761716 c -1.3112,1.0647 -2.6112,2.13994 -3.8691,3.26172 -1.187,1.05846 2.5002,-1.96766 3.75,-2.95117 0.04,-0.10357 0.08,-0.20698 0.1191,-0.31055 z M 953.71875,1010.291 v 302.0098 h 319.42775 c -14.8489,-5.683 -29.7372,-11.2609 -44.6035,-16.8574 -29.1039,-11.3138 -59.1836,-21.2936 -84.7188,-39.8965 0.049,-0.2819 0.3885,-0.69 0.1485,-0.8457 -15.04,-9.7557 -34.828,-19.4218 -45.7735,-33.9766 -5.6658,-6.468 -12.7822,-10.4508 -19.668,-15.5254 -14.3984,-10.6113 -27.5615,-20.0597 -36.6992,-35.6562 -4.8596,-7.065 -10.1331,-13.8617 -14.58,-21.1934 -1.816,-2.9939 -15.1829,-30.831 -16.2911,-33.4687 -0.5172,-1.231 -1.3519,-2.7775 -0.7011,-3.9434 0.453,-0.8115 3.4114,0.9001 2.7793,0.2187 -3.4297,-3.6965 -7.7274,-6.4792 -11.5918,-9.7187 -5.71931,-5.7358 -12.7292,-10.4252 -17.15824,-17.207 -11.6066,-17.7722 -16.03611,-29.0181 -15.43164,-46.9922 -0.33616,-0.9322 -0.67164,-1.8647 -1.00781,-2.7969 -4.45169,-8.1195 -9.34189,-16.1063 -14.13086,-24.1504 z m 128.89845,24.3125 c -0.2568,4.6012 -0.6265,9.21 -0.4649,13.8027 0.1339,3.8051 1.5662,-7.6312 0.9278,-11.3847 -0.1445,-0.8494 -0.3011,-1.6459 -0.4629,-2.418 z m -112.39259,6.4277 c 0.11869,1.7166 0.25355,3.3046 0.41797,4.379 0.0742,0.4846 0.46205,-0.8646 0.69336,-1.2969 -0.37047,-1.0273 -0.74087,-2.0548 -1.11133,-3.0821 z m 167.52929,65.3633 c 2.3543,4.4608 4.5295,8.082 4.8594,6.4942 0.3063,-1.4747 -2.5373,-4.4008 -4.8594,-6.4942 z" />
    </clipPath>
    <clipPath
       clipPathUnits="userSpaceOnUse"
       id="clipPath1676">
      <path
         id="path1678"
         style="fill:#ff0000;fill-opacity:1;fill-rule:nonzero;stroke:none;stroke-width:0.264583"
         d="M -1.5105021,0.3984253 V 299.64062 H 164.70054 c 0.0826,-0.30405 -0.25782,-0.57091 -1.30793,-0.78237 -0.19644,-0.0396 -0.26797,-0.054 -0.25838,-0.0522 0.0288,0.005 0.79011,0.15677 1.11621,0.21135 1.59338,0.26691 2.1019,0.3502 3.7455,0.4191 0.47869,0.0201 0.95852,0 1.43764,0 2.83104,0 5.66197,0.0114 8.49303,0.004 3.76378,-0.007 7.52896,-0.0643 11.29181,0.045 1.01947,0.0127 2.03902,0.0116 3.05821,0.003 V 0.3984253 Z" />
    </clipPath>
    <clipPath
       clipPathUnits="userSpaceOnUse"
       id="clipPath1686">
      <path
         id="path1688"
         style="fill:#ff0000;fill-opacity:1;fill-rule:nonzero;stroke:none;stroke-width:0.264583"
         d="m 491.32353,2.7351807 c -0.19063,0.4650683 -0.38534,0.9688114 -0.58296,1.526327 -0.0593,0.1672283 -0.0861,0.2469311 -0.13359,0.3823465 0.0388,0.004 0.0632,0.00663 0.10084,0.010586 0.20611,-0.5009401 0.48,-1.1762258 0.77459,-1.8984073 -0.0531,-0.00639 -0.10589,-0.013933 -0.15888,-0.020852 z m -0.71655,1.9086735 c -0.0801,-0.00826 -0.12309,-0.014154 -0.20821,-0.022492 C 485.88684,3.9188514 485.16879,3.8579123 480.33184,2.853701 475.31612,1.8123727 476.69587,1.8359855 471.73619,1.1059971 470.8543,0.97619476 469.9683,0.87555 469.08202,0.77745335 c -2.4528,0.008197 -4.90685,-0.19184839 -7.33065,-0.58003442 -4.8013,-0.60412992 -9.59222,-1.29937953 -14.40731,-1.78820373 -2.44124,-0.2312889 -4.96297,-0.3305997 -7.36212,-0.8734408 -3.51394,-0.7950748 -0.50784,-0.1762933 -2.38173,-0.8211951 -0.0728,-0.025066 -0.14658,-0.047366 -0.22029,-0.069734 -0.0404,-0.00311 -0.0808,-0.00607 -0.12115,-0.0091 l -69.07237,-4.77e-5 c 0.53723,1.2840182 1.14373,2.74093526 1.85455,4.4572076 0.6948,1.6775308 2.49228,10.1443278 2.84537,11.7324308 1.23073,5.356481 2.76353,10.645726 3.83485,16.036344 1.79441,9.028816 1.31289,18.266158 1.22366,27.397723 0.022,1.181011 -0.0121,6.549105 0.33033,8.716983 0.29125,1.843474 0.88095,3.640808 1.05899,5.498642 0.30249,3.15641 0.17655,6.298949 -0.15468,9.433354 0.15862,0.775675 0.31705,1.551308 0.47567,2.326978 3.67509,19.59071 6.61823,35.62238 10.38334,54.69072 0.56003,2.83617 1.52539,5.61084 1.76349,8.49196 0.0999,1.2089 -0.0153,2.41976 -0.15147,3.63168 0.0981,-0.0801 0.2153,-0.10926 0.35682,-0.067 1.50026,0.4493 0.43675,3.10138 0.65535,4.65216 1.0024,16.68217 0.23302,33.43199 0.20543,50.14109 -0.55126,11.78958 1.22255,23.8065 -0.76921,35.52396 -0.0523,0.3075 -0.11152,0.61375 -0.1692,0.92016 0.12189,0.25988 0.24061,0.52096 0.35364,0.78496 0.97626,2.28006 1.77261,4.63319 2.6586,6.94984 2.00616,4.00241 3.06876,8.31839 4.47748,12.53588 0.7049,2.11037 2.00556,4.11157 2.93943,6.12202 3.14926,4.74794 5.28432,10.39547 5.62436,16.11867 0.56063,0.9486 1.1401,1.8954 1.61338,2.88221 6.81703,0.78242 13.68074,1.15254 20.45215,2.3222 2.2199,0.4046 4.44947,0.76227 6.66001,1.21389 0.47998,0.0981 0.95769,0.20617 1.43457,0.31793 2.14133,-0.0256 4.28325,-0.0255 6.42285,-0.11181 0.94875,-0.14111 1.90583,-0.23782 2.84638,-0.4229 0.92717,-0.18245 1.83245,-0.45775 2.75073,-0.67809 0.95017,-0.228 1.89614,-0.47416 2.85461,-0.66711 2.28329,-0.45969 4.5947,-0.72921 6.91118,-0.97252 0.48829,-0.0513 0.93973,-0.0538 1.35301,-0.0159 3.99499,0.36618 4.40571,4.51679 -0.30635,5.07832 -1.91403,0.2281 -3.82893,0.43149 -5.72706,0.75405 4.39788,1.02814 3.81309,5.44638 -0.72151,5.06416 -0.25168,0.13617 -0.52582,0.28618 -0.83815,0.46923 -0.28747,-0.01 -0.57523,-0.0123 -0.86239,-0.0278 -0.24294,0.26515 0.0852,0.14298 -1.28594,0.37861 -0.35898,-0.009 -0.71826,-0.009 -1.07764,-0.007 0.25378,0.26133 0.47293,0.50711 0.64547,0.73398 0.94222,0.11178 1.88406,0.22686 2.82644,0.33738 1.6552,0.19313 3.31248,0.37121 4.96821,0.55983 0.86445,0.0985 1.73593,0.15046 2.59254,0.30173 0.5129,0.0906 1.00235,0.28119 1.50344,0.42199 0.23821,0.13471 0.48992,0.24903 0.71457,0.40436 0.0906,0.0623 -0.33265,-0.0999 -0.33228,0.008 1.7e-4,2e-5 -1.3e-4,0.003 1e-5,0.004 1.04887,0.18349 1.08218,0.69173 0.17147,3.0418 0.0477,0.71992 0.0791,1.44015 0.0453,2.15964 -0.007,0.14937 -0.307,-0.0102 -0.46043,-0.0153 -0.1439,-0.0154 -0.28757,-0.0331 -0.43146,-0.0485 -0.0909,0.16043 -0.31102,0.0741 -0.54716,-0.0599 -0.48348,-0.0529 -0.96706,-0.10614 -1.45056,-0.15907 -0.99497,-0.11838 -1.98921,-0.24103 -2.98391,-0.36117 0.005,0.18365 0.003,0.37301 -0.0118,0.57346 -0.004,0.0544 -0.0128,0.10905 -0.0181,0.16358 l 34.79698,-1.2e-4 -4e-5,-301.5615188 c -0.37465,0.00585 -0.92649,-0.067801 -1.78405,-0.1580336 -0.42702,1.037763 -0.59368,1.3945109 -0.10078,-0.011081 z M 331.07953,-3.3640706 274.17691,-3.36412 v 30.08735 c 3.94139,-7.193466 10.79126,-9.521005 16.60574,-7.003375 8e-5,-0.329354 1.8e-4,-0.658649 2.8e-4,-0.988003 -0.0119,-1.632823 -0.0253,-3.265455 -0.0312,-4.898347 -0.27662,-2.669227 -2.26958,-6.5210492 0.003,-7.4345038 0.003,-0.3963762 0.003,-0.7926705 0.004,-1.1890546 0.0474,-5.84590876 -0.13428,-8.6102546 3.19415,-8.5289911 2.18445,0.053334 5.92069,1.3508836 12.18571,3.78879117 15.42136,-5.86207727 14.93525,-4.62538677 14.85758,4.92264013 -0.003,0.3079859 -0.003,0.6158581 -0.003,0.9238374 0.0111,0.00432 0.0197,0.0081 0.0309,0.012407 2.50457,0.9780226 -10e-4,5.3778348 -0.003,8.0667138 0,1.289841 -9e-5,2.579887 2e-5,3.869726 0.0116,1.561708 0.0286,3.123073 0.0433,4.684763 5.18525,0.452247 10.38879,1.597572 15.3927,2.832996 -1.36164,-5.133166 -1.67079,-6.267171 -4.6218,-24.6560825 -0.24026,-1.49728319 -0.50137,-2.9935472 -0.75577,-4.4908192 z M 337.857,31.226058 c -0.34287,1.182697 -0.75172,2.411791 -1.08136,3.55422 0.0792,1.360307 0.10619,2.722068 0.10849,4.084802 0.42823,0.01156 0.85687,0.02391 1.2851,0.0354 0.52168,-0.161747 0.94993,-0.296339 1.42017,-0.444261 -0.69286,-2.97606 -1.26247,-5.342218 -1.7324,-7.230159 z m -63.67996,202.522862 -2.1e-4,72.62513 16.24854,-6e-5 c -1.48762,-5.50564 -2.77339,-11.05792 -4.07808,-16.23459 -1.82887,-8.39452 -2.75217,-16.83842 -3.12293,-25.31014 -1.9055,-2.79736 -3.48275,-6.44944 -4.50997,-11.02068 -1.56477,-6.9633 -3.0741,-13.56994 -4.53735,-20.05966 z m 179.38534,63.62289 c -0.30743,0.20059 -0.50054,0.34781 -0.6173,0.45311 0.20737,-0.0609 0.41961,-0.11129 0.60016,-0.22406 0.0658,-0.0411 0.15846,-0.11444 0.2549,-0.19533 -0.0791,-0.0125 -0.15853,-0.0224 -0.23774,-0.0338 z m -1.20999,7.94662 c -0.0199,9e-5 -0.0364,0.005 -0.0495,0.02 -0.13036,0.15025 -0.0692,0.45189 -0.25084,0.53807 -0.22632,0.10744 -0.50279,-0.0438 -0.75446,-0.0611 -0.67013,-0.0464 -1.34068,-0.0866 -2.01103,-0.1301 -0.98255,-0.0544 -1.96426,-0.11788 -2.94541,-0.18852 l 2.46278,0.30765 c 0.81338,0.10161 1.62395,0.23251 2.44044,0.30486 0.41819,0.0371 1.12318,0.20994 1.49197,-0.17596 0.0629,-0.0658 0.0703,-0.16645 0.10542,-0.24968 -0.0724,-0.006 -0.35083,-0.35811 -0.48938,-0.3652 z" />
    </clipPath>
    <clipPath
       id="clipPath848-3-0-3"
       clipPathUnits="userSpaceOnUse">
      <path
         id="path846-6-6-6"
         d="M 0,500 H 750 V 0 H 0 Z" />
    </clipPath>
    <clipPath
       id="clipPath856-7-1-7"
       clipPathUnits="userSpaceOnUse">
      <path
         id="path854-5-5-5"
         d="M 528.139,367 H 697.194 V 210.333 H 528.139 Z" />
    </clipPath>
    <clipPath
       id="clipPath890-2-6-2"
       clipPathUnits="userSpaceOnUse">
      <path
         id="path888-9-5-9"
         d="m 523.584,213.595 h 178.165 v -7.024 H 523.584 Z" />
    </clipPath>
    <clipPath
       id="clipPath954-1-6-1"
       clipPathUnits="userSpaceOnUse">
      <path
         id="path952-2-9-2"
         d="m 551.156,297 h 7.344 v -14.125 h -7.344 z" />
    </clipPath>
    <clipPath
       id="clipPath1054-7-3-7"
       clipPathUnits="userSpaceOnUse">
      <path
         id="path1052-0-7-0"
         d="m 591.316,318.223 h 10.199 v -13.524 h -10.199 z" />
    </clipPath>
    <clipPath
       id="clipPath1074-9-4-9"
       clipPathUnits="userSpaceOnUse">
      <path
         id="path1072-3-5-3"
         d="M 679.277,270.601 H 701.5 v -38.975 h -22.223 z" />
    </clipPath>
    <clipPath
       id="clipPath1094-6-2-6"
       clipPathUnits="userSpaceOnUse">
      <path
         id="path1092-0-5-0"
         d="m 654.806,260.75 h 22.966 v -27.862 h -22.966 z" />
    </clipPath>
    <clipPath
       id="clipPath1114-6-4-6"
       clipPathUnits="userSpaceOnUse">
      <path
         id="path1112-2-7-2"
         d="m 675.023,276.383 h 14.211 v -45.752 h -14.211 z" />
    </clipPath>
    <clipPath
       id="clipPath122-6-1-6"
       clipPathUnits="userSpaceOnUse">
      <path
         id="path120-1-2-1"
         d="M 44.1395,368 H 213.194 V 211.333 H 44.1395 Z" />
    </clipPath>
    <clipPath
       id="clipPath156-2-9-2"
       clipPathUnits="userSpaceOnUse">
      <path
         id="path154-0-4-0"
         d="M 57.8212,236.114 H 176.104 V 201.261 H 57.8212 Z" />
    </clipPath>
    <clipPath
       id="clipPath184-2-7-2"
       clipPathUnits="userSpaceOnUse">
      <path
         id="path182-3-8-3"
         d="m 140.579,386.919 h 53.049 V 264.342 h -53.049 z" />
    </clipPath>
    <clipPath
       id="clipPath300-7-4-7"
       clipPathUnits="userSpaceOnUse">
      <path
         id="path298-5-5-5"
         d="m 138.083,246.706 h 52.263 v -13.035 h -52.263 z" />
    </clipPath>
    <clipPath
       id="clipPath356-9-0-9"
       clipPathUnits="userSpaceOnUse">
      <path
         id="path354-2-3-2"
         d="m 68.7069,301.01 h 9.567 v -26.542 h -9.567 z" />
    </clipPath>
    <clipPath
       id="clipPath372-2-6-2"
       clipPathUnits="userSpaceOnUse">
      <path
         id="path370-8-1-8"
         d="m 84.8903,277.524 h 11.803 v -18.392 h -11.803 z" />
    </clipPath>
    <clipPath
       id="clipPath388-9-0-9"
       clipPathUnits="userSpaceOnUse">
      <path
         id="path386-7-6-7"
         d="M 83.3557,301.557 H 95.4256 V 281.052 H 83.3557 Z" />
    </clipPath>
    <clipPath
       id="clipPath404-3-3-3"
       clipPathUnits="userSpaceOnUse">
      <path
         id="path402-6-2-6"
         d="M 58.2665,279.673 H 74.3372 V 255.846 H 58.2665 Z" />
    </clipPath>
    <clipPath
       id="clipPath2338"
       clipPathUnits="userSpaceOnUse">
      <path
         d="M -1.2841593,-3.6137329 V 300.62093 H 154.71252 c -0.085,-0.26699 0.14144,-0.58258 0.68316,-0.58084 h 0.89555 c 0.65875,0 1.31791,-0.009 1.97663,0.004 0.17567,0.003 0.35184,0.006 0.52813,0.009 -0.002,-0.051 -0.007,-0.10271 -0.01,-0.15296 -0.002,-0.0316 0.0636,0.005 0.0956,0.005 0.0113,1.6e-4 0.0194,-1.8e-4 0.0305,0 0.002,-0.003 0.003,-0.006 0.006,-0.009 0.001,-0.003 0.0745,0.007 0.0946,0.009 0.2988,0.003 0.52955,-2.1e-4 0.87798,-0.003 0.13961,-0.003 0.27938,-0.008 0.4191,-0.0119 V -2.2401733 c -1.19612,-0.00344 -2.39221,-0.00895 -3.58841,-0.0062 -0.45496,-0.099407 -1.49389,-0.1526598 -1.35806,-0.9286255 0.0407,-0.232334 0.19467,-0.3589181 0.38034,-0.4387328 z M 156.07677,-3.4034098 c -0.007,-0.012592 0.008,0.032144 0.0212,0.037724 7.9e-4,2.91e-4 0.002,7.408e-4 0.003,0.00103 -0.008,-0.01298 -0.0167,-0.025604 -0.0243,-0.038757 z"
         style="fill:#ff0000;fill-opacity:1;fill-rule:nonzero;stroke:none;stroke-width:0.264583"
         id="path2340" />
    </clipPath>
    <clipPath
       id="clipPath2360"
       clipPathUnits="userSpaceOnUse">
      <path
         d="M 130.23701,-5.9102337 V 304.81035 h 17.62735 c -0.0346,-0.0185 -0.0692,-0.0369 -0.10387,-0.0553 -0.78466,-0.41627 1.19824,-0.54327 0.6258,-0.75602 -0.0661,-0.0201 -0.0556,-0.0159 -0.16692,-0.0496 0.0195,0.005 0.0389,0.01 0.0584,0.0151 0.0457,0.0119 0.0781,0.0233 0.10852,0.0346 0.36212,0.11031 0.28101,0.086 1.10381,0.28835 0.27775,0.0683 0.55162,0.15396 0.83302,0.20515 1.07966,0.19704 2.17383,0.12835 3.26337,0.20463 0.44667,0.0116 0.93234,0.0308 1.40922,0.0289 -0.002,-0.0151 -0.003,-0.0301 0.002,-0.047 0.0844,-0.29347 0.19569,-0.49347 0.32815,-0.6351 0.004,-0.11745 0.021,-0.23633 0.0403,-0.35555 -0.0163,-0.0993 -0.0253,-0.19892 -0.0114,-0.29869 0.01,-0.0704 0.10935,-0.0344 0.19999,-0.013 0.23715,-0.007 0.47409,-0.0114 0.71106,-0.0151 0.003,-2.6e-4 0.007,-2.6e-4 0.01,0 0.20945,-0.0175 0.4177,-0.0459 0.6227,-0.0956 0.19517,-2e-5 0.39033,3e-5 0.58549,0 0.14673,-0.10345 0.23428,-0.18944 0.33487,-0.27077 -0.10608,-0.0285 -0.21245,-0.0556 -0.31833,-0.0847 -0.16913,-0.0228 -0.23392,-0.0298 -0.53123,-0.0724 -0.64673,-0.0922 -0.56624,-0.10956 -1.21853,-0.22529 -0.14587,-0.0259 -0.29318,-0.0431 -0.43977,-0.0646 -0.92556,-0.1356 -1.10167,-1.00188 -0.16898,-0.93017 0.0132,0 0.0265,0.003 0.0398,0.003 0.0373,-0.16214 0.1886,-0.3089 0.44958,-0.45939 0.10648,-0.0615 0.77671,0.003 0.83561,0.006 0.1351,0.0375 0.27352,0.0652 0.40566,0.11213 0.82669,0.29316 -0.62155,-0.11446 0.6196,0.27852 0.0714,0.0228 0.14386,0.0443 0.21653,0.0636 0.005,-0.0566 0.0123,-0.11266 0.0155,-0.17002 -0.0301,-0.15158 -0.0424,-0.30993 -0.0589,-0.46664 -0.45755,-0.003 -0.91498,-1.9e-4 -1.37253,0 -0.29991,0 -0.59977,-1.9e-4 -0.89968,0 -0.93514,-0.003 -0.93216,-0.94766 0.003,-0.94465 h 0.89555 c 0.65875,0 1.31791,-0.009 1.97663,0.004 0.17567,0.003 0.35184,0.006 0.52813,0.009 -0.002,-0.051 -0.007,-0.10271 -0.01,-0.15296 -0.002,-0.0316 0.0636,0.005 0.0956,0.005 0.0113,1.6e-4 0.0194,-1.8e-4 0.0305,0 0.002,-0.003 0.003,-0.006 0.006,-0.009 0.001,-0.003 0.0745,0.007 0.0946,0.009 0.2988,0.003 0.52955,-10e-5 0.87798,-0.003 1.20294,-0.0259 2.41108,-0.11681 3.60133,0.12041 0.29098,0.048 0.58352,0.0895 0.87334,0.14417 0.30953,0.0584 0.5175,0.10581 0.74259,0.15505 0.32754,-0.0615 0.64896,-0.15558 0.95704,-0.27959 0.10853,-0.0569 0.83987,-0.4886 1.11673,-0.50744 0.0395,-0.003 0.07,0.003 0.0878,0.0196 0.1835,0.16872 0.2773,0.30628 0.31264,0.42685 1.07928,0.10668 2.79489,0.48641 3.84525,0.70744 0.26315,-1.3e-4 0.52649,-0.003 0.78961,-0.003 0.39932,1.6e-4 0.79854,2.6e-4 1.19786,0 1.4723,0.003 2.94457,0.009 4.41679,-0.0114 1.58453,0.003 3.17059,0.10951 4.75371,0.019 0.2332,-0.0618 0.6343,-0.17759 0.86041,-0.19018 0.0923,-0.005 0.19026,-0.007 0.29198,-0.006 0.71198,0.007 1.6163,0.1501 2.17454,0.22585 3.54855,0.48133 2.99323,0.42111 3.61838,0.49297 0.0814,0 0.16257,-1.3e-4 0.24392,-0.004 1.15989,0.003 2.31974,0.005 3.47937,-0.0249 0.11781,-0.003 1.24442,-0.0478 1.43816,-0.0388 0.18675,0.008 0.37142,0.0427 0.55707,0.0646 0.0462,0.0331 0.0966,0.0626 0.14624,0.092 h 0.77773 c 0.17404,0.0372 0.34722,0.0777 0.52194,0.1116 0.16505,0.032 0.33044,0.0644 0.49712,0.0863 0.71382,5e-5 1.42766,0 2.14147,0.003 0.0157,0 0.0314,-0.003 0.047,-0.003 0.0425,-0.009 0.71627,-0.019 0.71727,0 0.001,0.0159 0.003,0.022 0.004,0.0372 0.0201,0.022 0.019,0.0812 0.0134,0.1447 0.0534,0.61164 0.11454,0.74711 -0.0723,0.76171 -2e-5,0 3e-5,0 0,0.003 -0.001,0.0265 -0.041,0.009 -0.0744,0 -0.0463,0 -0.0768,0.003 -0.14676,0.003 -0.14626,0 -0.29248,-8e-5 -0.43873,0 -0.74284,0.0429 -1.49782,0.0831 -2.23759,-0.003 -0.53026,-3e-5 -1.06035,0 -1.5906,0 -0.11644,0.0703 -0.23633,0.1388 -0.10904,0.31316 -0.11681,0.0555 -0.22523,0.13382 -0.35036,0.16639 -0.27871,0.0727 -0.88651,0.0496 -1.1343,0.0496 -0.58717,1.6e-4 -1.17447,0 -1.76165,0 -0.0238,0 -0.0476,8e-5 -0.0713,0 -0.006,0.0466 -0.0177,0.0925 -0.0284,0.13849 0.32312,0.56732 0.12186,0.54499 -0.2253,0.51884 -0.004,0.005 -0.006,0.0119 -0.01,0.0164 -0.079,0.10914 -0.27007,-0.003 -0.40514,-0.003 -0.53544,-0.004 -0.65036,-0.0169 -0.91726,-0.0548 -0.0857,0 -0.16137,0.006 -0.54467,0.0196 -0.0757,0.003 -0.15396,-0.0127 -0.22686,0.006 -0.0517,0.0143 -0.0795,0.0274 -0.10284,0.0403 0.0748,0.0735 0.10142,0.19843 0.0434,0.41031 0.35463,0.14341 0.75378,0.30253 0.80357,0.73949 h 43.26967 V -5.9102337 h -53.08203 c 0.0171,0.00746 0.0341,0.015232 0.0512,0.022738 1.22584,0.00212 2.42788,0.033803 3.73207,0.1937867 1.08549,0.1331547 2.0411,0.3424679 3.00395,0.8268229 0.2814,0.1415571 0.41219,0.290549 0.6072,0.488859 0.12376,0.068758 0.29694,0.085569 0.37104,0.206189 0.33558,0.5459957 0.42143,0.9129699 -0.19792,1.1756387 -0.24928,0.1057193 -0.53071,0.1166043 -0.80047,0.1400432 -0.49942,0.043395 -3.74848,0.1318091 -3.88452,0.135909 -0.91648,0.00169 -1.65558,0.01606 -2.39365,0.00517 0.0573,0.047835 0.10291,0.1052932 0.13798,0.1689821 0.33918,0.1238286 0.45499,0.3999507 0.35036,0.6113322 0.3548,0.2615241 0.18289,0.7948853 -0.52038,0.8015014 -0.28872,0.00272 -0.57705,-8.228e-4 -0.86558,-0.00103 0.0798,0.038789 0.15064,0.081028 0.20361,0.1286743 0.1153,5.874e-4 0.27715,0.00272 0.36741,0.0031 0.61673,0.002582 1.4066,0.006593 2.03864,-0.019637 0.16441,-0.00682 0.32789,-0.0248 0.49196,-0.037207 0.32978,-0.024939 0.39483,0.30120941 0.0651,0.3276285 -0.17702,0.0141862 -0.35381,0.0350443 -0.53123,0.0428915 -0.61968,0.0274076 -1.46576,0.0226319 -2.06448,0.0201538 -0.0497,-2.0561e-4 -0.14422,-0.001302 -0.20205,-0.00155 -0.004,0.27952655 -0.33812,0.51486406 -0.86558,0.35088299 -0.0451,-0.0140084 -0.0907,-0.0259104 -0.13591,-0.0392741 -0.0649,0.24251325 -0.41156,0.428384 -0.90589,0.28525392 -0.86738,-0.25114709 -1.71837,-0.59205187 -2.61224,-0.7431071 -0.26435,-0.0446718 -0.53217,-0.063123 -0.79789,-0.098702 -0.33873,-0.0453536 -0.67656,-0.0961893 -1.01492,-0.14417721 -0.9183,-0.1801828 -1.84088,-0.3442057 -2.74816,-0.5761922 -0.23963,-0.06128 -0.47506,-0.1375813 -0.71468,-0.1989543 -0.2804,-0.071814 -0.56727,-0.1187145 -0.84491,-0.2005045 -0.23847,-0.070249 -0.47275,-0.1543367 -0.70693,-0.2382284 -2.47692,0.010739 -4.95362,0.028836 -7.43056,0.035657 -1.72161,0.00134 -3.44293,-0.012745 -5.16454,-0.00879 -0.45496,-0.099407 -1.49388,-0.1526599 -1.35806,-0.9286255 0.0901,-0.5145553 0.7257,-0.5244296 1.06557,-0.6082316 0.34486,-0.00951 0.68957,-0.027638 1.03456,-0.028422 1.01046,-0.0023 2.02047,0.016103 3.03083,0.03359 -0.0315,-0.044539 -0.0626,-0.089414 -0.0935,-0.1343586 -0.17259,-0.06009 -0.34511,-0.1411253 -0.52245,-0.2552816 -0.17236,-0.1110038 -0.26187,-0.2560569 -0.28732,-0.4134115 -0.31451,-0.058411 -0.62888,-0.1176665 -0.94412,-0.1720826 -0.27106,-0.046788 -0.54308,-0.087767 -0.81494,-0.1297077 -0.28428,-0.019772 -0.55385,-0.035926 -0.7798,-0.044442 -0.43151,-0.016264 -0.86324,0.01283 -1.29501,0.019121 -0.29984,0.00829 -0.59994,0.035802 -0.89969,0.024805 -0.0644,-0.00235 -0.12814,-0.011541 -0.19223,-0.017571 -0.12541,0.052704 -0.24532,0.095911 -0.27802,-0.00259 -0.003,-0.0086 -0.002,-0.017227 -0.005,-0.025839 -0.10696,-0.014192 -0.21377,-0.029623 -0.32091,-0.041341 0.0615,-0.2890528 0.009,-0.6287288 0.18397,-0.8671306 0.0328,-0.04473 0.0818,-0.062704 0.13591,-0.072347 z m 28.83131,0 c 0.43849,0.088098 0.87764,0.1732108 1.31775,0.2537315 0.0335,-0.011515 0.0673,-0.023278 0.10232,-0.027905 0.49808,-0.065755 1.22189,-0.027467 1.69602,-0.018087 0.16709,0.00392 0.33417,0.00624 0.50126,0.00982 0.12332,-0.010975 0.24651,-0.023704 0.37001,-0.032556 0.36129,-0.025895 0.72433,-0.023934 1.08624,-0.038757 0.29946,-0.012266 0.2301,-0.010223 0.38085,-0.017052 -0.0294,-0.043557 -0.0614,-0.085391 -0.0904,-0.1291913 z m 17.14056,0 c 0.0865,0.019619 0.16925,0.038552 0.25683,0.058394 0.23608,-0.00632 0.47192,-0.011531 0.70797,-0.01602 -0.0104,-0.01497 -0.02,-0.027603 -0.0305,-0.042375 z m 1.90479,0 c 5.3e-4,0.011031 0.002,0.022 0.002,0.033073 0.0337,-1.54e-5 0.0675,-0.00111 0.10129,-0.00103 0.0516,-5.24e-5 0.0986,-8.996e-4 0.14986,-0.00103 -0.0251,-0.01034 -0.0499,-0.020772 -0.0749,-0.031006 z m -12.50776,0.031523 c 0.0134,0.018653 0.0269,0.03716 0.0403,0.055811 0.0953,-0.00212 0.0391,-0.00169 0.25735,-0.00672 -0.1009,-0.017296 -0.1977,-0.032311 -0.29766,-0.049093 z m 16.35611,0.9482624 c 0.0126,0.083242 0.002,0.1591032 -0.0315,0.2309937 0.0426,0.00704 0.0849,0.016034 0.12764,0.022738 0.50224,0.078829 1.01126,0.1116819 1.51825,0.1493448 1.11062,0.082505 1.46241,0.073385 2.37453,0.071313 -0.56991,-0.1552622 -1.17082,-0.2554406 -1.64899,-0.311092 -0.8148,-0.094829 -1.58186,-0.1415039 -2.33991,-0.1632977 z m 4.86843,0.7823814 c 0.065,0.1301803 0.0491,0.2785221 -0.0455,0.3999754 0.1904,-0.0093 0.38015,-0.025241 0.56896,-0.047542 -0.17019,-0.1364366 -0.34433,-0.271349 -0.42065,-0.3079917 -0.0326,-0.015658 -0.0691,-0.029364 -0.10284,-0.044441 z m 1.15446,0.1984375 c -0.0208,0.00289 -0.038,0.00932 -0.0455,0.020672 -0.0111,0.01682 -0.0156,0.029244 -0.0248,0.044958 0.0626,-0.01342 0.12529,-0.026591 0.18758,-0.042375 0.0395,-0.010012 -0.0549,-0.031913 -0.1173,-0.023254 z m -6.38049,0.1498616 c -0.004,0.068318 -0.0794,0.076145 -0.17519,0.067179 -0.005,0.00555 -0.0121,0.01038 -0.0171,0.01602 -0.12351,0.013319 -0.247,0.026784 -0.37052,0.039791 -0.003,0.00382 -0.004,0.00855 -0.008,0.011885 0.50591,0.010885 1.02012,0.011531 1.57097,0.00672 -0.21366,-0.020817 -0.42667,-0.045009 -0.63872,-0.078031 -0.12079,-0.018809 -0.24079,-0.042416 -0.36122,-0.063562 z m -25.52765,0.3963582 c -0.007,-0.012592 0.008,0.032144 0.0212,0.037724 7.9e-4,2.91e-4 0.002,7.408e-4 0.003,0.00103 -0.008,-0.01298 -0.0167,-0.025604 -0.0243,-0.038757 z m 19.63447,0.8986531 c 0.008,0.00219 0.0162,0.00456 0.0243,0.00672 -10e-4,-0.00201 -0.002,-0.00419 -0.003,-0.0062 -0.007,-8.46e-5 -0.0141,-4.313e-4 -0.0212,-5.16e-4 z m 3.30367,306.3223865 c -0.34491,0.0366 -0.69004,0.0719 -1.03611,0.093 -0.13082,0.008 -0.26176,0.0119 -0.39274,0.0164 0.001,0.0185 0.003,0.0372 0.005,0.0558 0.35707,0.0924 0.67666,0.17177 0.92087,0.22635 0.55327,0.12364 1.10903,0.2376 1.66656,0.34105 0.12537,-0.0116 0.25069,-0.0238 0.37621,-0.0331 0.31522,-0.0228 0.63081,-0.045 0.9462,-0.0656 -0.16063,-0.0183 -0.32108,-0.0407 -0.48214,-0.0718 -0.56511,-0.10925 -0.10974,-0.0334 -0.42427,-0.17778 -0.4037,-0.18526 -0.66047,-0.27654 -0.94464,-0.35914 -0.17386,0.0594 -0.3951,0.0167 -0.54984,-0.009 -0.0283,-0.005 -0.0564,-0.0111 -0.0847,-0.0161 z m -21.45244,0.48628 v 0 c -0.04,0.0196 -0.0823,0.0342 -0.1235,0.0511 0.10083,-0.0172 0.20752,-0.0322 0.31729,-0.0465 -0.0644,-0.003 -0.12916,-0.004 -0.19379,-0.005 z"
         style="fill:#ff0000;fill-opacity:1;fill-rule:nonzero;stroke:none;stroke-width:0.264583"
         id="path2362" />
    </clipPath>
    <clipPath
       clipPathUnits="userSpaceOnUse"
       id="clipPath848-3-0-3-5">
      <path
         d="M 0,500 H 750 V 0 H 0 Z"
         id="path846-6-6-6-4" />
    </clipPath>
    <clipPath
       clipPathUnits="userSpaceOnUse"
       id="clipPath856-7-1-7-7">
      <path
         d="M 528.139,367 H 697.194 V 210.333 H 528.139 Z"
         id="path854-5-5-5-0" />
    </clipPath>
    <clipPath
       clipPathUnits="userSpaceOnUse"
       id="clipPath890-2-6-2-4">
      <path
         d="m 523.584,213.595 h 178.165 v -7.024 H 523.584 Z"
         id="path888-9-5-9-3" />
    </clipPath>
    <clipPath
       clipPathUnits="userSpaceOnUse"
       id="clipPath954-1-6-1-5">
      <path
         d="m 551.156,297 h 7.344 v -14.125 h -7.344 z"
         id="path952-2-9-2-3" />
    </clipPath>
    <clipPath
       clipPathUnits="userSpaceOnUse"
       id="clipPath1054-7-3-7-7">
      <path
         d="m 591.316,318.223 h 10.199 v -13.524 h -10.199 z"
         id="path1052-0-7-0-3" />
    </clipPath>
    <clipPath
       clipPathUnits="userSpaceOnUse"
       id="clipPath1074-9-4-9-2">
      <path
         d="M 679.277,270.601 H 701.5 v -38.975 h -22.223 z"
         id="path1072-3-5-3-8" />
    </clipPath>
    <clipPath
       clipPathUnits="userSpaceOnUse"
       id="clipPath1094-6-2-6-3">
      <path
         d="m 654.806,260.75 h 22.966 v -27.862 h -22.966 z"
         id="path1092-0-5-0-0" />
    </clipPath>
    <clipPath
       clipPathUnits="userSpaceOnUse"
       id="clipPath1114-6-4-6-8">
      <path
         d="m 675.023,276.383 h 14.211 v -45.752 h -14.211 z"
         id="path1112-2-7-2-6" />
    </clipPath>
    <clipPath
       clipPathUnits="userSpaceOnUse"
       id="clipPath122-6-1-6-6">
      <path
         d="M 44.1395,368 H 213.194 V 211.333 H 44.1395 Z"
         id="path120-1-2-1-9" />
    </clipPath>
    <clipPath
       clipPathUnits="userSpaceOnUse"
       id="clipPath156-2-9-2-3">
      <path
         d="M 57.8212,236.114 H 176.104 V 201.261 H 57.8212 Z"
         id="path154-0-4-0-7" />
    </clipPath>
    <clipPath
       clipPathUnits="userSpaceOnUse"
       id="clipPath184-2-7-2-1">
      <path
         d="m 140.579,386.919 h 53.049 V 264.342 h -53.049 z"
         id="path182-3-8-3-2" />
    </clipPath>
    <clipPath
       clipPathUnits="userSpaceOnUse"
       id="clipPath300-7-4-7-3">
      <path
         d="m 138.083,246.706 h 52.263 v -13.035 h -52.263 z"
         id="path298-5-5-5-5" />
    </clipPath>
    <clipPath
       clipPathUnits="userSpaceOnUse"
       id="clipPath356-9-0-9-7">
      <path
         d="m 68.7069,301.01 h 9.567 v -26.542 h -9.567 z"
         id="path354-2-3-2-0" />
    </clipPath>
    <clipPath
       clipPathUnits="userSpaceOnUse"
       id="clipPath372-2-6-2-2">
      <path
         d="m 84.8903,277.524 h 11.803 v -18.392 h -11.803 z"
         id="path370-8-1-8-6" />
    </clipPath>
    <clipPath
       clipPathUnits="userSpaceOnUse"
       id="clipPath388-9-0-9-0">
      <path
         d="M 83.3557,301.557 H 95.4256 V 281.052 H 83.3557 Z"
         id="path386-7-6-7-7" />
    </clipPath>
    <clipPath
       clipPathUnits="userSpaceOnUse"
       id="clipPath404-3-3-3-3">
      <path
         d="M 58.2665,279.673 H 74.3372 V 255.846 H 58.2665 Z"
         id="path402-6-2-6-7" />
    </clipPath>
    <clipPath
       id="clipPath848-3-0-3-5-1"
       clipPathUnits="userSpaceOnUse">
      <path
         id="path846-6-6-6-4-8"
         d="M 0,500 H 750 V 0 H 0 Z" />
    </clipPath>
    <clipPath
       id="clipPath856-7-1-7-7-4"
       clipPathUnits="userSpaceOnUse">
      <path
         id="path854-5-5-5-0-7"
         d="M 528.139,367 H 697.194 V 210.333 H 528.139 Z" />
    </clipPath>
    <linearGradient
       id="linearGradient868-6"
       spreadMethod="pad"
       gradientTransform="matrix(0,174.0002,174.0002,0,612.66663,222.33344)"
       gradientUnits="userSpaceOnUse"
       y2="0"
       x2="1"
       y1="0"
       x1="0">
      <stop
         id="stop862-8"
         offset="0"
         style="stop-opacity:1;stop-color:#ffffff" />
      <stop
         id="stop864-9"
         offset="0.33554817"
         style="stop-opacity:1;stop-color:#ffffff" />
      <stop
         id="stop866-6"
         offset="1"
         style="stop-opacity:1;stop-color:#67b8ef" />
    </linearGradient>
    <clipPath
       id="clipPath890-2-6-2-4-3"
       clipPathUnits="userSpaceOnUse">
      <path
         id="path888-9-5-9-3-9"
         d="m 523.584,213.595 h 178.165 v -7.024 H 523.584 Z" />
    </clipPath>
    <clipPath
       id="clipPath954-1-6-1-5-6"
       clipPathUnits="userSpaceOnUse">
      <path
         id="path952-2-9-2-3-9"
         d="m 551.156,297 h 7.344 v -14.125 h -7.344 z" />
    </clipPath>
    <clipPath
       id="clipPath1054-7-3-7-7-7"
       clipPathUnits="userSpaceOnUse">
      <path
         id="path1052-0-7-0-3-5"
         d="m 591.316,318.223 h 10.199 v -13.524 h -10.199 z" />
    </clipPath>
    <clipPath
       id="clipPath1074-9-4-9-2-6"
       clipPathUnits="userSpaceOnUse">
      <path
         id="path1072-3-5-3-8-0"
         d="M 679.277,270.601 H 701.5 v -38.975 h -22.223 z" />
    </clipPath>
    <clipPath
       id="clipPath1094-6-2-6-3-5"
       clipPathUnits="userSpaceOnUse">
      <path
         id="path1092-0-5-0-0-2"
         d="m 654.806,260.75 h 22.966 v -27.862 h -22.966 z" />
    </clipPath>
    <clipPath
       id="clipPath1114-6-4-6-8-7"
       clipPathUnits="userSpaceOnUse">
      <path
         id="path1112-2-7-2-6-6"
         d="m 675.023,276.383 h 14.211 v -45.752 h -14.211 z" />
    </clipPath>
    <clipPath
       id="clipPath122-6-1-6-6-6"
       clipPathUnits="userSpaceOnUse">
      <path
         id="path120-1-2-1-9-3"
         d="M 44.1395,368 H 213.194 V 211.333 H 44.1395 Z" />
    </clipPath>
    <linearGradient
       id="linearGradient134-2"
       spreadMethod="pad"
       gradientTransform="matrix(0,174.0002,174.0002,0,128.66664,223.33344)"
       gradientUnits="userSpaceOnUse"
       y2="0"
       x2="1"
       y1="0"
       x1="0">
      <stop
         id="stop128-4"
         offset="0"
         style="stop-opacity:1;stop-color:#ffffff" />
      <stop
         id="stop130-3"
         offset="0.33554817"
         style="stop-opacity:1;stop-color:#ffffff" />
      <stop
         id="stop132-6"
         offset="1"
         style="stop-opacity:1;stop-color:#67b8ef" />
    </linearGradient>
    <clipPath
       id="clipPath156-2-9-2-3-0"
       clipPathUnits="userSpaceOnUse">
      <path
         id="path154-0-4-0-7-4"
         d="M 57.8212,236.114 H 176.104 V 201.261 H 57.8212 Z" />
    </clipPath>
    <clipPath
       id="clipPath184-2-7-2-1-3"
       clipPathUnits="userSpaceOnUse">
      <path
         id="path182-3-8-3-2-6"
         d="m 140.579,386.919 h 53.049 V 264.342 h -53.049 z" />
    </clipPath>
    <clipPath
       id="clipPath300-7-4-7-3-3"
       clipPathUnits="userSpaceOnUse">
      <path
         id="path298-5-5-5-5-7"
         d="m 138.083,246.706 h 52.263 v -13.035 h -52.263 z" />
    </clipPath>
    <clipPath
       id="clipPath356-9-0-9-7-4"
       clipPathUnits="userSpaceOnUse">
      <path
         id="path354-2-3-2-0-9"
         d="m 68.7069,301.01 h 9.567 v -26.542 h -9.567 z" />
    </clipPath>
    <clipPath
       id="clipPath372-2-6-2-2-4"
       clipPathUnits="userSpaceOnUse">
      <path
         id="path370-8-1-8-6-2"
         d="m 84.8903,277.524 h 11.803 v -18.392 h -11.803 z" />
    </clipPath>
    <clipPath
       id="clipPath388-9-0-9-0-9"
       clipPathUnits="userSpaceOnUse">
      <path
         id="path386-7-6-7-7-3"
         d="M 83.3557,301.557 H 95.4256 V 281.052 H 83.3557 Z" />
    </clipPath>
    <clipPath
       id="clipPath404-3-3-3-3-8"
       clipPathUnits="userSpaceOnUse">
      <path
         id="path402-6-2-6-7-2"
         d="M 58.2665,279.673 H 74.3372 V 255.846 H 58.2665 Z" />
    </clipPath>
  </defs>
  <sodipodi:namedview
     inkscape:window-maximized="0"
     inkscape:window-y="0"
     inkscape:window-x="0"
     inkscape:window-height="743"
     inkscape:window-width="1366"
     inkscape:guide-bbox="true"
     showguides="false"
     showgrid="false"
     inkscape:document-rotation="0"
     inkscape:current-layer="layer1"
     inkscape:document-units="mm"
     inkscape:cy="418.14556"
     inkscape:cx="105.63802"
     inkscape:zoom="1.979899"
     inkscape:pageshadow="2"
     inkscape:pageopacity="0.0"
     borderopacity="1.0"
     bordercolor="#666666"
     pagecolor="#ffffff"
     id="base" />
  <metadata
     id="metadata2090">
    <rdf:RDF>
      <cc:Work
         rdf:about="">
        <dc:format>image/svg+xml</dc:format>
        <dc:type
           rdf:resource="http://purl.org/dc/dcmitype/StillImage" />
        <dc:title></dc:title>
      </cc:Work>
    </rdf:RDF>
  </metadata>
  <g
     id="layer1"
     inkscape:groupmode="layer"
     inkscape:label="Layer 1">
    <rect
       style="opacity:1;fill:#004d42;fill-opacity:1;stroke:none;stroke-width:0.172335;stroke-dasharray:1.37868, 1.37868"
       id="rect17897"
       width="104.56348"
       height="204.51549"
       x="-0.41308826"
       y="-2.0907557"
       ry="0" />
    <path
       style="fill:#999999;stroke:#598f8c;stroke-width:0.072994;stroke-linecap:butt;stroke-linejoin:miter;stroke-miterlimit:4;stroke-dasharray:0.583956, 0.583956;stroke-dashoffset:0;stroke-opacity:1"
       d="M 50.456004,77.936547 V 123.80127 Z"
       id="path4552" />
    <g
       id="g842"
       transform="matrix(0.15876311,0,0,-0.15876311,-46.474098,110.02059)">
      <g
         clip-path="url(#clipPath848-3-0-3-5-1)"
         id="g844">
        <g
           id="g850">
          <g
             id="g852" />
          <g
             id="g882">
            <g
               id="g880"
               opacity="0.419998"
               clip-path="url(#clipPath856-7-1-7-7-4)">
              <g
                 id="g878">
                <g
                   id="g876">
                  <g
                     id="g874">
                    <g
                       id="g872">
                      <path
                         id="path870"
                         style="fill:url(#linearGradient868-6);stroke:none"
                         d="m 564.01,210.333 h 97.314 c 21.69,14.952 35.869,39.609 35.869,67.518 0,45.615 -37.843,89.149 -84.526,89.149 -46.684,0 -84.527,-43.534 -84.527,-89.149 0,-27.909 14.18,-52.566 35.87,-67.518" />
                    </g>
                  </g>
                </g>
              </g>
            </g>
          </g>
        </g>
        <g
           id="g884">
          <g
             id="g886" />
          <g
             id="g898">
            <g
               id="g896"
               opacity="0.429993"
               clip-path="url(#clipPath890-2-6-2-4-3)">
              <g
                 id="g894"
                 transform="translate(701.749,210.083)">
                <path
                   id="path892"
                   style="fill:#cee5ed;fill-opacity:1;fill-rule:nonzero;stroke:none"
                   d="m 0,0 c 0,1.939 -39.884,3.512 -89.082,3.512 -49.199,0 -89.083,-1.573 -89.083,-3.512 0,-1.939 39.884,-3.512 89.083,-3.512 C -39.884,-3.512 0,-1.939 0,0" />
              </g>
            </g>
          </g>
        </g>
        <path
           id="path900"
           style="fill:#aac6ce;fill-opacity:1;fill-rule:nonzero;stroke:none"
           d="m 583.599,213.578 h -4.053 v 38.755 h 4.053 z" />
        <path
           id="path902"
           style="fill:#85b0ba;fill-opacity:1;fill-rule:nonzero;stroke:none"
           d="m 583.599,246.885 h -4.053 v 5.448 h 4.053 z" />
        <g
           transform="translate(599.1973,213.5645)"
           id="g904">
          <path
             id="path906"
             style="fill:#aac6ce;fill-opacity:1;fill-rule:nonzero;stroke:none"
             d="m 0,0 h -33.977 c -1.296,0 -2.348,-1.051 -2.348,-2.348 V -3.557 H 2.349 v 1.209 C 2.349,-1.051 1.297,0 0,0" />
        </g>
        <g
           transform="translate(571.9648,252.2944)"
           id="g908">
          <path
             id="path910"
             style="fill:#aac6ce;fill-opacity:1;fill-rule:nonzero;stroke:none"
             d="m 0,0 h 28.084 c -10.219,3.67 -6.266,38.242 -4.377,51.348 0.381,2.64 -1.671,5.002 -4.339,5.002 L 0.662,56.351 c -3.829,0 -7.073,-2.822 -7.596,-6.615 C -8.575,37.829 -11.162,13.138 -6.038,3.579 -4.85,1.361 -2.516,0 0,0" />
        </g>
        <g
           transform="translate(576.1006,348.5718)"
           id="g912">
          <path
             id="path914"
             style="fill:#3e8ccc;fill-opacity:1;fill-rule:nonzero;stroke:none"
             d="m 0,0 c 0,10.872 -8.813,19.686 -19.686,19.686 -10.873,0 -19.686,-8.814 -19.686,-19.686 0,-10.873 8.813,-19.687 19.686,-19.687 C -8.813,-19.687 0,-10.873 0,0" />
        </g>
        <g
           transform="translate(572.4883,348.5718)"
           id="g916">
          <path
             id="path918"
             style="fill:#cee5ed;fill-opacity:1;fill-rule:nonzero;stroke:none"
             d="m 0,0 c 0,8.877 -7.196,16.073 -16.073,16.073 -8.878,0 -16.074,-7.196 -16.074,-16.073 0,-8.877 7.196,-16.074 16.074,-16.074 C -7.196,-16.074 0,-8.877 0,0" />
        </g>
        <g
           transform="translate(551.8496,343.0879)"
           id="g920">
          <path
             id="path922"
             style="fill:#3e8ccc;fill-opacity:1;fill-rule:nonzero;stroke:none"
             d="m 0,0 c -0.256,0 -0.512,0.098 -0.707,0.293 -0.391,0.391 -0.391,1.023 0,1.414 l 4.19,4.191 v 11.014 c 0,0.552 0.448,1 1,1 0.553,0 1,-0.448 1,-1 V 5.484 C 5.483,5.219 5.378,4.964 5.19,4.777 L 0.707,0.293 C 0.512,0.098 0.256,0 0,0" />
        </g>
        <g
           transform="translate(558.5088,348.8633)"
           id="g924">
          <path
             id="path926"
             style="fill:#1e394c;fill-opacity:1;fill-rule:nonzero;stroke:none"
             d="m 0,0 c 0,1.271 -1.03,2.302 -2.303,2.302 -1.271,0 -2.301,-1.031 -2.301,-2.302 0,-1.271 1.03,-2.303 2.301,-2.303 C -1.03,-2.303 0,-1.271 0,0" />
        </g>
        <g
           transform="translate(668.5068,330.25)"
           id="g928">
          <path
             id="path930"
             style="fill:#62bdf4;fill-opacity:1;fill-rule:nonzero;stroke:none"
             d="m 0,0 h -33.597 c -1.722,0 -3.119,-1.396 -3.119,-3.119 v -15.136 c 0,-1.723 1.397,-3.12 3.119,-3.12 h 2.347 v -3.66 c 0,-0.507 0.602,-0.776 0.979,-0.435 l 4.542,4.095 H 0 c 1.722,0 3.118,1.397 3.118,3.12 V -3.119 C 3.118,-1.396 1.722,0 0,0" />
        </g>
        <g
           transform="translate(644.9141,319.3335)"
           id="g932">
          <path
             id="path934"
             style="fill:#34648c;fill-opacity:1;fill-rule:nonzero;stroke:none"
             d="m 0,0 c 0,-0.759 -0.615,-1.374 -1.374,-1.374 -0.759,0 -1.373,0.615 -1.373,1.374 0,0.758 0.614,1.374 1.373,1.374 C -0.615,1.374 0,0.758 0,0" />
        </g>
        <g
           transform="translate(653.3643,319.3335)"
           id="g936">
          <path
             id="path938"
             style="fill:#34648c;fill-opacity:1;fill-rule:nonzero;stroke:none"
             d="m 0,0 c 0,-0.759 -0.615,-1.374 -1.374,-1.374 -0.759,0 -1.374,0.615 -1.374,1.374 0,0.758 0.615,1.374 1.374,1.374 C -0.615,1.374 0,0.758 0,0" />
        </g>
        <g
           transform="translate(661.25,319.3335)"
           id="g940">
          <path
             id="path942"
             style="fill:#34648c;fill-opacity:1;fill-rule:nonzero;stroke:none"
             d="m 0,0 c 0,-0.759 -0.615,-1.374 -1.374,-1.374 -0.758,0 -1.373,0.615 -1.373,1.374 0,0.758 0.615,1.374 1.373,1.374 C -0.615,1.374 0,0.758 0,0" />
        </g>
        <g
           transform="translate(558.5,289.583)"
           id="g944">
          <path
             id="path946"
             style="fill:#67b8ef;fill-opacity:1;fill-rule:nonzero;stroke:none"
             d="m 0,0 c 0,3.705 -2.616,7.417 -5.844,7.417 -3.227,0 -5.844,-3.712 -5.844,-7.417 0,-3.705 2.617,-6.708 5.844,-6.708 C -2.616,-6.708 0,-3.705 0,0" />
        </g>
        <g
           id="g948">
          <g
             id="g950" />
          <g
             id="g962">
            <g
               id="g960"
               opacity="0.25"
               clip-path="url(#clipPath954-1-6-1-5-6)">
              <g
                 id="g958"
                 transform="translate(552.6562,297)">
                <path
                   id="path956"
                   style="fill:#34648c;fill-opacity:1;fill-rule:nonzero;stroke:none"
                   d="m 0,0 c -0.52,0 -1.021,-0.105 -1.5,-0.282 2.499,-0.922 4.344,-4.027 4.344,-7.135 0,-3.108 -1.845,-5.715 -4.344,-6.477 0.479,-0.146 0.98,-0.231 1.5,-0.231 3.228,0 5.844,3.003 5.844,6.708 C 5.844,-3.712 3.228,0 0,0" />
              </g>
            </g>
          </g>
        </g>
        <g
           transform="translate(545.9961,285.1997)"
           id="g964">
          <path
             id="path966"
             style="fill:#cee5ed;fill-opacity:1;fill-rule:nonzero;stroke:none"
             d="m 0,0 1.048,-9.482 c 0.131,-1.185 1.132,-2.082 2.325,-2.082 h 6.044 c 1.192,0 2.194,0.897 2.325,2.082 L 12.789,0 c 0.058,0.516 -0.347,0.967 -0.866,0.967 H 0.866 C 0.347,0.967 -0.057,0.516 0,0" />
        </g>
        <g
           transform="translate(546.8623,284.75)"
           id="g968">
          <path
             id="path970"
             style="fill:#aac6ce;fill-opacity:1;fill-rule:nonzero;stroke:none"
             d="m 0,0 h 11.057 c 0.342,0 0.62,-0.205 0.762,-0.486 L 11.923,0.45 C 11.98,0.966 11.576,1.417 11.057,1.417 H 0 c -0.519,0 -0.923,-0.451 -0.866,-0.967 l 0.103,-0.936 C -0.619,-0.205 -0.342,0 0,0" />
        </g>
        <g
           transform="translate(557.9189,286.1665)"
           id="g972">
          <path
             id="path974"
             style="fill:#aac6ce;fill-opacity:1;fill-rule:nonzero;stroke:none"
             d="m 0,0 h -3.833 c 0.519,0 0.923,-0.451 0.866,-0.967 l -1.048,-9.482 c -0.131,-1.185 -1.132,-2.082 -2.325,-2.082 h 3.834 c 1.193,0 2.194,0.897 2.325,2.082 l 1.047,9.482 C 0.924,-0.451 0.52,0 0,0" />
        </g>
        <g
           transform="translate(606.3437,219.2988)"
           id="g976">
          <path
             id="path978"
             style="fill:#f2bf75;fill-opacity:1;fill-rule:nonzero;stroke:none"
             d="M 0,0 -0.396,-2.741 1.688,-5.409 6.978,-2.82 7.55,-0.313 0.967,0.682 Z" />
        </g>
        <g
           transform="translate(610.6123,210.4795)"
           id="g980">
          <path
             id="path982"
             style="fill:#1e394c;fill-opacity:1;fill-rule:nonzero;stroke:none"
             d="M 0,0 0.546,0.676 C 0.646,0.8 0.834,0.803 0.937,0.681 L 1.486,0.038 c 0.222,-0.26 0.548,-0.407 0.89,-0.401 l 12.287,0.209 c 0.234,0.24 0.296,0.652 0.021,0.929 C 12.883,2.593 3.19,5.734 2.709,5.999 2.227,6.265 -0.738,3.961 -4.665,6.078 c 0,0 -0.637,-3.075 -0.729,-5.068 -0.037,-0.814 0.605,-1.495 1.419,-1.482 l 3.119,0.054 C -0.523,-0.412 -0.209,-0.26 0,0" />
        </g>
        <g
           transform="translate(583.7949,265.606)"
           id="g984">
          <path
             id="path986"
             style="fill:#1e394c;fill-opacity:1;fill-rule:nonzero;stroke:none"
             d="m 0,0 c 0,0 -5.102,-5.64 4.24,-11.769 6.555,-4.299 11.72,-2.986 15.833,-5.592 0.965,-0.611 1.698,-1.521 1.767,-2.661 l 0.208,-26.366 0.498,-0.247 c 2.475,-1.229 5.376,-1.261 7.878,-0.086 l 3.721,30.083 c 0.132,2.074 -0.988,3.822 -2.272,5.456 C 24.729,-2.095 12.081,0.984 8.879,1.509 4.717,2.191 0,0 0,0" />
        </g>
        <g
           transform="translate(586.0273,219.3018)"
           id="g988">
          <path
             id="path990"
             style="fill:#f2bf75;fill-opacity:1;fill-rule:nonzero;stroke:none"
             d="m 0,0 -0.435,-2.735 2.049,-2.697 5.323,2.517 0.607,2.498 -6.568,1.085 z" />
        </g>
        <g
           transform="translate(590.1738,210.4248)"
           id="g992">
          <path
             id="path994"
             style="fill:#1e394c;fill-opacity:1;fill-rule:nonzero;stroke:none"
             d="M 0,0 0.556,0.669 C 0.657,0.791 0.846,0.791 0.947,0.668 L 1.486,0.019 c 0.219,-0.264 0.543,-0.415 0.885,-0.415 l 12.289,0.042 c 0.237,0.236 0.305,0.647 0.033,0.928 C 12.918,2.416 3.27,5.69 2.791,5.962 2.312,6.233 -0.684,3.971 -4.581,6.142 c 0,0 -0.679,-3.067 -0.798,-5.059 -0.049,-0.812 0.584,-1.503 1.399,-1.5 l 3.119,0.011 C -0.528,-0.405 -0.213,-0.257 0,0" />
        </g>
        <g
           transform="translate(568.2861,270.5234)"
           id="g996">
          <path
             id="path998"
             style="fill:#1e394c;fill-opacity:1;fill-rule:nonzero;stroke:none"
             d="m 0,0 c 0,0 -6.182,-6.89 2.757,-14.672 6.27,-5.46 11.897,-3.125 15.847,-6.455 0.926,-0.781 1.566,-1.842 1.474,-3.05 l -2.823,-26.819 0.213,-0.138 c 2.466,-1.6 5.583,-1.813 8.242,-0.562 l 6.989,28.261 c 0.438,2.16 -0.489,4.159 -1.603,6.06 C 24.893,-6.8 15.153,-0.497 11.863,0.514 7.588,1.829 0,0 0,0" />
        </g>
        <g
           transform="translate(602.3896,249)"
           id="g1000">
          <path
             id="path1002"
             style="fill:#0f2a3f;fill-opacity:1;fill-rule:nonzero;stroke:none"
             d="m 0,0 c -0.47,0.2 -0.949,0.36 -1.439,0.5 -0.26,1.26 -0.88,2.48 -1.571,3.65 -3.07,5.24 -7.019,9.44 -10.62,12.45 2.24,0.38 3.38,0.86 4,1.49 1.231,-0.2 3.71,-0.76 6.71,-1.82 C 0.12,11.19 0.11,2.94 0,0" />
        </g>
        <g
           transform="translate(584.9297,306.9849)"
           id="g1004">
          <path
             id="path1006"
             style="fill:#cee5ed;fill-opacity:1;fill-rule:nonzero;stroke:none"
             d="m 0,0 c 0,0 -8.915,1.189 -12.621,-5.758 -3.705,-6.947 -9.238,-34.18 -4.4,-35.009 2.142,-0.366 7.855,-1.804 14.184,-1.341 8.703,0.637 10.595,1.438 11.222,3.093 l 5.545,25.379 c 0.13,3.491 -1.424,6.85 -4.209,8.96 C 5.278,-1.309 0,0 0,0" />
        </g>
        <g
           transform="translate(598.8242,295.5801)"
           id="g1008">
          <path
             id="path1010"
             style="fill:#aac6ce;fill-opacity:1;fill-rule:nonzero;stroke:none"
             d="m 0,0 c 0,0 0.116,-15.284 4.921,-16.21 4.806,-0.927 17.6,-0.637 17.6,-0.637 V -21.71 H -4.921 Z" />
        </g>
        <g
           transform="translate(592.1797,302.5137)"
           id="g1012">
          <path
             id="path1014"
             style="fill:#ea9249;fill-opacity:1;fill-rule:nonzero;stroke:none"
             d="m 0,0 1.082,5.406 -7.012,5.34 -1.343,-6.372 c 0,0 2.211,-9.731 7.273,-4.374" />
        </g>
        <g
           transform="translate(601.124,318.2222)"
           id="g1016">
          <path
             id="path1018"
             style="fill:#1e394c;fill-opacity:1;fill-rule:nonzero;stroke:none"
             d="m 0,0 c 0,0 -3.668,-1.785 -9.042,1.49 0,0 -1.246,-2.241 -4.848,-4.242 0,0 -1.872,3.137 -2.949,0.786 -0.326,-0.712 -0.479,-1.352 -0.495,-1.919 -3.373,4.357 -0.994,10.097 2.15,13.191 2.981,2.937 9.432,1.769 13.462,0.149 4.278,-1.722 5.064,1.274 5.064,1.274 C 8.748,3.114 0,0 0,0" />
        </g>
        <g
           transform="translate(587.2324,315.4712)"
           id="g1020">
          <path
             id="path1022"
             style="fill:#f2bf75;fill-opacity:1;fill-rule:nonzero;stroke:none"
             d="m 0,0 c 0,0 -1.871,3.137 -2.948,0.787 -1.307,-2.852 0.168,-4.641 1.937,-4.641 0,0 1.405,-7.417 8.219,-6.892 6.815,0.524 7.798,11.467 6.684,13.498 0,0 -3.669,-1.786 -9.042,1.491 C 4.85,4.243 3.604,1.999 0,0" />
        </g>
        <g
           transform="translate(646.2988,298.1235)"
           id="g1024">
          <path
             id="path1026"
             style="fill:#cee5ed;fill-opacity:1;fill-rule:nonzero;stroke:none"
             d="m 0,0 h -28.445 c -1.402,0 -2.61,-0.986 -2.89,-2.36 l -3.787,-18.561 H -0.655 L 2.891,-3.54 C 3.264,-1.711 1.866,0 0,0" />
        </g>
        <g
           transform="translate(645.5332,277.2002)"
           id="g1028">
          <path
             id="path1030"
             style="fill:#80a9b2;fill-opacity:1;fill-rule:nonzero;stroke:none"
             d="m 0,0 h -47.009 c -0.775,0 -1.404,-0.628 -1.404,-1.404 v -0.454 c 0,-0.776 0.629,-1.405 1.404,-1.405 H 0 c 0.776,0 1.404,0.629 1.404,1.405 v 0.454 C 1.404,-0.628 0.776,0 0,0" />
        </g>
        <g
           transform="translate(645.5332,277.2007)"
           id="g1032">
          <path
             id="path1034"
             style="fill:#aac6ce;fill-opacity:1;fill-rule:nonzero;stroke:none"
             d="m 0,0 h -34.733 c 0.775,0 1.403,-0.629 1.403,-1.404 v -0.455 c 0,-0.775 -0.628,-1.404 -1.403,-1.404 H 0 c 0.776,0 1.404,0.629 1.404,1.404 v 0.455 C 1.404,-0.629 0.776,0 0,0" />
        </g>
        <g
           transform="translate(600.04,278.1958)"
           id="g1036">
          <path
             id="path1038"
             style="fill:#cee5ed;fill-opacity:1;fill-rule:nonzero;stroke:none"
             d="m 0,0 c -5.538,0.645 -21.074,2.23 -23.736,2.505 -3.359,0.348 3.936,13.895 4.747,18.527 0.81,4.631 -2.721,4.805 -2.721,4.805 -1.993,0.249 -4.169,0 -6.021,-2.806 -3.791,-5.742 -8.015,-22.53 -5.79,-26.674 0.262,-0.486 0.773,-0.784 1.325,-0.784 H 0 Z" />
        </g>
        <g
           transform="translate(600.04,278.1958)"
           id="g1040">
          <path
             id="path1042"
             style="fill:#aac6ce;fill-opacity:1;fill-rule:nonzero;stroke:none"
             d="m 0,0 c 0,0 -20.002,1.376 -24.315,1.956 -3.346,0.448 3.628,14.328 4.438,18.96 0.811,4.631 -2.778,4.438 -2.778,4.438 -0.9,0.111 -2.198,-0.015 -3.124,-0.293 1.339,0.88 2.742,0.94 4.071,0.778 0,0 3.529,-0.176 2.719,-4.807 C -19.8,16.4 -26.052,3.142 -23.939,2.621 -21.34,1.98 -5.539,0.644 0,0" />
        </g>
        <g
           transform="translate(600.04,273.6958)"
           id="g1044">
          <path
             id="path1046"
             style="fill:#f2bf75;fill-opacity:1;fill-rule:nonzero;stroke:none"
             d="M 0,0 H 7.461 C 8.021,0 8.358,0.62 8.053,1.089 7.354,2.163 6.251,3.68 5.442,3.937 4.96,4.09 1.332,3.955 0,3.814 Z" />
        </g>
        <g
           id="g1048">
          <g
             id="g1050" />
          <g
             id="g1062">
            <g
               id="g1060"
               opacity="0.669998"
               clip-path="url(#clipPath1054-7-3-7-7-7)">
              <g
                 id="g1058"
                 transform="translate(601.124,318.2231)">
                <path
                   id="path1056"
                   style="fill:#ea9249;fill-opacity:1;fill-rule:nonzero;stroke:none"
                   d="m 0,0 c 0,0 -0.612,-0.291 -1.689,-0.421 -0.091,-0.505 -0.253,-1.476 -0.341,-2.396 -0.125,-1.312 0.531,-5.375 0.125,-5.406 -0.407,-0.031 -1.25,0.031 -1.25,0.031 0,0 -0.625,-5.875 -6.5,-4.937 -0.056,0.008 -0.1,0.014 -0.153,0.023 0.89,-0.32 1.918,-0.485 3.124,-0.392 C 0.132,-12.974 1.114,-2.031 0,0" />
              </g>
            </g>
          </g>
        </g>
        <g
           transform="translate(686.6523,232.8584)"
           id="g1064">
          <path
             id="path1066"
             style="fill:#67b8ef;fill-opacity:1;fill-rule:nonzero;stroke:none"
             d="m 0,0 c 0,0 9.371,4.647 6.822,11.695 -2.549,7.047 -4.123,7.347 0.75,11.321 4.873,3.973 11.92,13.944 2.998,14.693 C 1.649,38.459 2.099,26.614 -5.323,24.965 -12.745,23.315 -16.794,-7.723 0,0" />
        </g>
        <g
           id="g1068">
          <g
             id="g1070" />
          <g
             id="g1082">
            <g
               id="g1080"
               opacity="0.25"
               clip-path="url(#clipPath1074-9-4-9-2-6)">
              <g
                 id="g1078"
                 transform="translate(679.2764,232.1592)">
                <path
                   id="path1076"
                   style="fill:#34648c;fill-opacity:1;fill-rule:nonzero;stroke:none"
                   d="m 0,0 c 1.8,-0.834 4.22,-0.753 7.376,0.699 0,0 9.371,4.648 6.822,11.696 -2.549,7.046 -4.123,7.346 0.75,11.32 4.873,3.973 11.92,13.944 2.998,14.694 -0.879,0.073 -1.664,0.021 -2.378,-0.128 2.511,-1.043 5.009,-3.112 1.781,-6.94 C 11.974,24.966 9.099,22.716 9.724,18.591 10.333,14.568 9.986,5.436 0,0" />
              </g>
            </g>
          </g>
        </g>
        <g
           transform="translate(670.7588,233.083)"
           id="g1084">
          <path
             id="path1086"
             style="fill:#67b8ef;fill-opacity:1;fill-rule:nonzero;stroke:none"
             d="m 0,0 c 0,0 -8.247,0.3 -7.797,6.223 0.449,5.923 0.679,6.154 -4.498,8.021 -9.146,3.299 -1.906,20.866 5.548,9.821 C -1.574,16.399 0.675,18.124 4.048,17.524 7.422,16.924 14.769,-2.624 0,0" />
        </g>
        <g
           id="g1088">
          <g
             id="g1090" />
          <g
             id="g1102">
            <g
               id="g1100"
               opacity="0.289993"
               clip-path="url(#clipPath1094-6-2-6-3-5)">
              <g
                 id="g1098"
                 transform="translate(674.8066,250.6074)">
                <path
                   id="path1096"
                   style="fill:#34648c;fill-opacity:1;fill-rule:nonzero;stroke:none"
                   d="m 0,0 c -3.373,0.6 -5.622,-1.125 -10.796,6.541 -3.9,5.781 -7.739,3.72 -9.204,-0.028 2.194,0.672 5.528,1.076 5.943,-2.495 0.539,-4.634 11.38,-12.243 11.159,-21.702 0.144,-0.014 0.283,-0.025 0.422,-0.036 1.578,4.16 3.66,9.556 5.441,14.153 C 2.012,-1.585 0.874,-0.155 0,0" />
              </g>
            </g>
          </g>
        </g>
        <g
           transform="translate(672.6699,233.3457)"
           id="g1104">
          <path
             id="path1106"
             style="fill:#34648c;fill-opacity:1;fill-rule:nonzero;stroke:none"
             d="m 0,0 c 0,0 -10.233,10.008 -6.747,11.695 3.486,1.687 10.346,-3.824 6.522,2.137 -3.823,5.96 -8.275,15.244 -2.99,13.782 C 2.07,26.152 2.454,24.545 1.8,31.487 0.954,40.466 5.961,45.094 10.684,42.17 15.406,39.247 6.635,19.455 9.896,21.591 c 3.261,2.137 5.96,3.936 6.635,1.349 C 17.206,20.354 7.194,10.199 10.908,11.92 15.52,14.057 16.194,10.233 14.732,7.871 13.271,5.51 7.197,-8.547 0,0" />
        </g>
        <g
           id="g1108">
          <g
             id="g1110" />
          <g
             id="g1122">
            <g
               id="g1120"
               opacity="0.479996"
               clip-path="url(#clipPath1114-6-4-6-8-7)">
              <g
                 id="g1118"
                 transform="translate(687.4023,241.2168)">
                <path
                   id="path1116"
                   style="fill:#1e394c;fill-opacity:1;fill-rule:nonzero;stroke:none"
                   d="m 0,0 c 1.462,2.362 0.787,6.186 -3.824,4.049 -3.714,-1.721 6.298,8.434 5.623,11.02 -0.675,2.587 -3.374,0.787 -6.635,-1.349 -3.261,-2.137 5.511,17.655 0.787,20.579 -2.196,1.36 -4.447,1.069 -6.149,-0.516 2.445,-0.598 4.403,-2.565 3.046,-7.875 -2.875,-11.25 -4.625,-20.625 0.625,-17.875 4.945,2.591 -5.744,-9.346 -5.853,-17.95 C -6.243,-13.424 -1.3,-2.099 0,0" />
              </g>
            </g>
          </g>
        </g>
        <g
           transform="translate(665.584,232.1719)"
           id="g1124">
          <path
             id="path1126"
             style="fill:#cee5ed;fill-opacity:1;fill-rule:nonzero;stroke:none"
             d="m 0,0 1.98,-17.932 c 0.249,-2.241 2.143,-3.938 4.398,-3.938 h 11.431 c 2.254,0 4.149,1.697 4.396,3.938 L 24.186,0 C 24.294,0.976 23.53,1.828 22.548,1.828 H 1.638 C 0.656,1.828 -0.107,0.976 0,0" />
        </g>
        <g
           transform="translate(688.1318,234)"
           id="g1128">
          <path
             id="path1130"
             style="fill:#aac6ce;fill-opacity:1;fill-rule:nonzero;stroke:none"
             d="m 0,0 h -7.25 c 0.982,0 1.746,-0.853 1.638,-1.828 L -7.593,-19.76 c -0.247,-2.241 -2.141,-3.938 -4.396,-3.938 h 7.25 c 2.255,0 4.149,1.697 4.396,3.938 L 1.638,-1.828 C 1.746,-0.853 0.982,0 0,0" />
        </g>
        <g
           transform="translate(665.9023,273.7539)"
           id="g1132">
          <path
             id="path1134"
             style="fill:#3e8ccc;fill-opacity:1;fill-rule:nonzero;stroke:none"
             d="m 0,0 h -122.56 c -1.376,0 -2.491,-1.115 -2.491,-2.491 v -0.807 c 0,-1.376 1.115,-2.492 2.491,-2.492 H 0 c 1.376,0 2.491,1.116 2.491,2.492 v 0.807 C 2.491,-1.115 1.376,0 0,0" />
        </g>
        <g
           transform="translate(665.9023,273.7539)"
           id="g1136">
          <path
             id="path1138"
             style="fill:#2173aa;fill-opacity:1;fill-rule:nonzero;stroke:none"
             d="m 0,0 h -122.56 c -1.376,0 -2.491,-1.115 -2.491,-2.491 v -0.807 c 0,-0.265 0.053,-0.515 0.129,-0.755 0.321,1.005 1.251,1.737 2.362,1.737 H 0 c 1.111,0 2.042,-0.732 2.362,-1.737 0.077,0.24 0.129,0.49 0.129,0.755 v 0.807 C 2.491,-1.115 1.376,0 0,0" />
        </g>
        <g
           transform="translate(582.0801,210.2148)"
           id="g1140">
          <path
             id="path1142"
             style="fill:#34648c;fill-opacity:1;fill-rule:nonzero;stroke:none"
             d="m 0,0 h -4.096 l -28.498,57.721 h 4.097 z" />
        </g>
        <g
           transform="translate(536.9814,210.2148)"
           id="g1144">
          <path
             id="path1146"
             style="fill:#34648c;fill-opacity:1;fill-rule:nonzero;stroke:none"
             d="M 0,0 H 4.096 L 32.594,57.721 H 28.497 Z" />
        </g>
        <g
           transform="translate(670.3105,210.2148)"
           id="g1148">
          <path
             id="path1150"
             style="fill:#34648c;fill-opacity:1;fill-rule:nonzero;stroke:none"
             d="m 0,0 h -4.096 l -28.498,57.721 h 4.097 z" />
        </g>
        <g
           transform="translate(625.2119,210.2148)"
           id="g1152">
          <path
             id="path1154"
             style="fill:#34648c;fill-opacity:1;fill-rule:nonzero;stroke:none"
             d="M 0,0 H 4.096 L 32.594,57.721 H 28.497 Z" />
        </g>
        <g
           transform="translate(554.7119,265.6489)"
           id="g1156">
          <path
             id="path1158"
             style="fill:#1a3651;fill-opacity:1;fill-rule:nonzero;stroke:none"
             d="M 0,0 -1.129,2.287 H -5.226 L -4.097,0 Z" />
        </g>
        <g
           transform="translate(568.4463,265.6489)"
           id="g1160">
          <path
             id="path1162"
             style="fill:#1a3651;fill-opacity:1;fill-rule:nonzero;stroke:none"
             d="M 0,0 1.129,2.287 H -2.968 L -4.097,0 Z" />
        </g>
        <g
           transform="translate(642.9424,265.6489)"
           id="g1164">
          <path
             id="path1166"
             style="fill:#1a3651;fill-opacity:1;fill-rule:nonzero;stroke:none"
             d="M 0,0 -1.129,2.287 H -5.226 L -4.097,0 Z" />
        </g>
        <g
           transform="translate(656.6768,265.6489)"
           id="g1168">
          <path
             id="path1170"
             style="fill:#1a3651;fill-opacity:1;fill-rule:nonzero;stroke:none"
             d="M 0,0 1.129,2.287 H -2.968 L -4.097,0 Z" />
        </g>
      </g>
    </g>
    <g
       id="g116"
       transform="matrix(0.15876311,0,0,-0.15876311,31.269465,181.343)">
      <g
         id="g118" />
      <g
         id="g148">
        <g
           id="g146"
           opacity="0.419998"
           clip-path="url(#clipPath122-6-1-6-6-6)">
          <g
             id="g144">
            <g
               id="g142">
              <g
                 id="g140">
                <g
                   id="g138">
                  <path
                     id="path136"
                     style="fill:url(#linearGradient134-2);stroke:none"
                     d="m 80.009,211.333 h 97.315 c 21.689,14.952 35.87,39.609 35.87,67.518 0,45.615 -37.844,89.149 -84.527,89.149 -46.684,0 -84.527,-43.534 -84.527,-89.149 0,-27.909 14.18,-52.566 35.869,-67.518" />
                </g>
              </g>
            </g>
          </g>
        </g>
      </g>
    </g>
    <g
       id="g150"
       transform="matrix(0.15876311,0,0,-0.15876311,31.269465,181.343)">
      <g
         id="g152" />
      <g
         id="g164">
        <g
           id="g162"
           opacity="0.429993"
           clip-path="url(#clipPath156-2-9-2-3-0)">
          <g
             id="g160"
             transform="translate(176.1025,205.4961)">
            <path
               id="path158"
               style="fill:#cee5ed;fill-opacity:1;fill-rule:nonzero;stroke:none"
               d="m 0,0 c 0.227,6.289 -26.068,17.293 -58.73,24.578 -32.662,7.286 -59.323,8.094 -59.55,1.805 C -118.506,20.094 -92.212,9.09 -59.55,1.805 -26.888,-5.48 -0.227,-6.289 0,0" />
          </g>
        </g>
      </g>
    </g>
    <g
       transform="matrix(0.15876311,0,0,-0.15876311,54.481351,137.6118)"
       id="g166">
      <path
         id="path168"
         style="fill:#17161c;fill-opacity:1;fill-rule:nonzero;stroke:none"
         d="m 0,0 c -5.602,2.042 -10.159,8.242 -10.159,13.821 v 94.67 c 0,5.579 4.557,8.457 10.159,6.415 L 41.123,99.916 C 46.724,97.874 51.282,91.673 51.282,86.094 L 51.281,-8.575 c 0,-5.579 -4.557,-8.457 -10.158,-6.415 z" />
    </g>
    <g
       transform="matrix(0.15876311,0,0,-0.15876311,54.586316,138.10821)"
       id="g170">
      <path
         id="path172"
         style="fill:#1e394c;fill-opacity:1;fill-rule:nonzero;stroke:none"
         d="m 0,0 c -5.905,2.152 -10.709,8.688 -10.709,14.57 v 99.796 c 0,5.882 4.804,8.915 10.709,6.762 l 43.35,-15.802 c 5.904,-2.152 10.709,-8.688 10.709,-14.57 V -9.04 c 0,-5.881 -4.805,-8.915 -10.709,-6.762 z" />
    </g>
    <g
       transform="matrix(0.15876311,0,0,-0.15876311,54.481351,137.00159)"
       id="g174">
      <path
         id="path176"
         style="fill:#62bdf4;fill-opacity:1;fill-rule:nonzero;stroke:none"
         d="m 0,0 c -3.474,1.266 -6.3,5.111 -6.3,8.572 v 94.669 c 0,3.46 2.826,5.245 6.3,3.978 l 41.123,-14.99 c 3.474,-1.266 6.3,-5.111 6.3,-8.572 v -94.669 c 0,-3.46 -2.827,-5.245 -6.3,-3.978 z" />
    </g>
    <g
       id="g178"
       transform="matrix(0.15876311,0,0,-0.15876311,31.269465,181.343)">
      <g
         id="g180" />
      <g
         id="g192">
        <g
           id="g190"
           opacity="0.25"
           clip-path="url(#clipPath184-2-7-2-1-3)">
          <g
             id="g188"
             transform="translate(187.3271,371.5225)">
            <path
               id="path186"
               style="fill:#34648c;fill-opacity:1;fill-rule:nonzero;stroke:none"
               d="m 0,0 -41.122,14.99 c -2.46,0.896 -4.588,0.259 -5.626,-1.415 1.107,0.555 2.547,0.615 4.126,0.04 L -1.5,-1.375 c 3.474,-1.267 6.3,-5.112 6.3,-8.572 v -94.669 c 0,-1.011 -0.246,-1.873 -0.675,-2.564 1.33,0.667 2.175,2.051 2.175,3.939 V -8.572 C 6.3,-5.112 3.474,-1.267 0,0" />
          </g>
        </g>
      </g>
    </g>
    <g
       transform="matrix(0.15876311,0,0,-0.15876311,60.174247,121.93346)"
       id="g194">
      <path
         id="path196"
         style="fill:#1e394c;fill-opacity:1;fill-rule:nonzero;stroke:none"
         d="m 0,0 -30.593,11.151 1.361,-3.65 c 0.617,-1.658 2.032,-3.103 3.598,-3.673 l 20.676,-7.537 c 1.565,-0.571 2.98,-0.158 3.598,1.05 z" />
    </g>
    <g
       transform="matrix(0.15876311,0,0,-0.15876311,60.744968,124.42476)"
       id="g198">
      <path
         id="path200"
         style="fill:#87d3f9;fill-opacity:1;fill-rule:nonzero;stroke:none"
         d="m 0,0 -37.782,13.772 c -2.027,0.739 -3.67,-0.298 -3.67,-2.317 V -5.577 c 0,-2.019 1.643,-4.254 3.67,-4.992 L 0,-24.342 c 2.026,-0.739 3.669,0.299 3.669,2.317 V -4.993 C 3.669,-2.974 2.026,-0.739 0,0" />
    </g>
    <g
       transform="matrix(0.15876311,0,0,-0.15876311,60.744968,129.17927)"
       id="g202">
      <path
         id="path204"
         style="fill:#87d3f9;fill-opacity:1;fill-rule:nonzero;stroke:none"
         d="m 0,0 -37.782,13.772 c -2.027,0.739 -3.67,-0.298 -3.67,-2.317 V -5.577 c 0,-2.019 1.643,-4.254 3.67,-4.992 L 0,-24.342 c 2.026,-0.739 3.669,0.299 3.669,2.317 V -4.993 C 3.669,-2.974 2.026,-0.739 0,0" />
    </g>
    <g
       transform="matrix(0.15876311,0,0,-0.15876311,60.744968,133.98465)"
       id="g206">
      <path
         id="path208"
         style="fill:#87d3f9;fill-opacity:1;fill-rule:nonzero;stroke:none"
         d="m 0,0 -37.782,13.772 c -2.027,0.739 -3.67,-0.298 -3.67,-2.317 V -5.577 c 0,-2.019 1.643,-4.254 3.67,-4.993 L 0,-24.342 c 2.026,-0.739 3.669,0.299 3.669,2.317 V -4.993 C 3.669,-2.974 2.026,-0.739 0,0" />
    </g>
    <g
       transform="matrix(0.15876311,0,0,-0.15876311,58.822908,124.877)"
       id="g210">
      <path
         id="path212"
         style="fill:#1e394c;fill-opacity:1;fill-rule:nonzero;stroke:none"
         d="m 0,0 -13.052,4.758 c -0.44,0.16 -0.801,-0.067 -0.801,-0.506 0,-0.438 0.361,-0.928 0.801,-1.088 L 0,-1.594 c 0.44,-0.16 0.8,0.067 0.8,0.505 C 0.8,-0.65 0.44,-0.16 0,0" />
    </g>
    <g
       transform="matrix(0.15876311,0,0,-0.15876311,58.822908,126.29883)"
       id="g214">
      <path
         id="path216"
         style="fill:#1e394c;fill-opacity:1;fill-rule:nonzero;stroke:none"
         d="m 0,0 -13.052,4.757 c -0.44,0.161 -0.801,-0.067 -0.801,-0.505 0,-0.439 0.361,-0.928 0.801,-1.089 L 0,-1.595 c 0.44,-0.16 0.8,0.068 0.8,0.506 C 0.8,-0.651 0.44,-0.161 0,0" />
    </g>
    <g
       transform="matrix(0.15876311,0,0,-0.15876311,59.461136,125.83006)"
       id="g218">
      <path
         id="path220"
         style="fill:#1e394c;fill-opacity:1;fill-rule:nonzero;stroke:none"
         d="M 0,0 -21.609,7.877 C -22.05,8.038 -22.41,7.81 -22.41,7.372 c 0,-0.439 0.36,-0.929 0.801,-1.089 L 0,-1.594 C 0.44,-1.755 0.8,-1.527 0.8,-1.089 0.8,-0.65 0.44,-0.161 0,0" />
    </g>
    <g
       transform="matrix(0.15876311,0,0,-0.15876311,58.822908,129.97526)"
       id="g222">
      <path
         id="path224"
         style="fill:#1e394c;fill-opacity:1;fill-rule:nonzero;stroke:none"
         d="m 0,0 -13.052,4.758 c -0.44,0.16 -0.801,-0.067 -0.801,-0.506 0,-0.438 0.361,-0.928 0.801,-1.088 L 0,-1.594 c 0.44,-0.16 0.8,0.067 0.8,0.505 C 0.8,-0.65 0.44,-0.16 0,0" />
    </g>
    <g
       transform="matrix(0.15876311,0,0,-0.15876311,59.461136,130.9283)"
       id="g226">
      <path
         id="path228"
         style="fill:#1e394c;fill-opacity:1;fill-rule:nonzero;stroke:none"
         d="M 0,0 -21.609,7.877 C -22.05,8.038 -22.41,7.81 -22.41,7.372 c 0,-0.439 0.36,-0.929 0.801,-1.089 L 0,-1.594 C 0.44,-1.755 0.8,-1.527 0.8,-1.089 0.8,-0.65 0.44,-0.161 0,0" />
    </g>
    <g
       transform="matrix(0.15876311,0,0,-0.15876311,58.822831,134.43301)"
       id="g230">
      <path
         id="path232"
         style="fill:#1e394c;fill-opacity:1;fill-rule:nonzero;stroke:none"
         d="m 0,0 -13.052,4.758 c -0.44,0.16 -0.8,-0.067 -0.8,-0.506 0,-0.438 0.36,-0.928 0.8,-1.088 L 0,-1.594 c 0.44,-0.16 0.801,0.067 0.801,0.505 C 0.801,-0.65 0.44,-0.16 0,0" />
    </g>
    <g
       transform="matrix(0.15876311,0,0,-0.15876311,58.822831,135.84206)"
       id="g234">
      <path
         id="path236"
         style="fill:#1e394c;fill-opacity:1;fill-rule:nonzero;stroke:none"
         d="m 0,0 -13.052,4.758 c -0.44,0.16 -0.8,-0.067 -0.8,-0.506 0,-0.438 0.36,-0.928 0.8,-1.089 L 0,-1.594 C 0.44,-1.755 0.801,-1.527 0.801,-1.089 0.801,-0.65 0.44,-0.161 0,0" />
    </g>
    <g
       transform="matrix(0.15876311,0,0,-0.15876311,59.461136,135.38609)"
       id="g238">
      <path
         id="path240"
         style="fill:#1e394c;fill-opacity:1;fill-rule:nonzero;stroke:none"
         d="M 0,0 -21.609,7.877 C -22.05,8.038 -22.41,7.81 -22.41,7.372 c 0,-0.438 0.36,-0.929 0.801,-1.089 L 0,-1.594 C 0.44,-1.755 0.8,-1.527 0.8,-1.089 0.8,-0.65 0.44,-0.161 0,0" />
    </g>
    <g
       transform="matrix(0.15876311,0,0,-0.15876311,52.91418,146.2035)"
       id="g242">
      <path
         id="path244"
         style="fill:#f2bf75;fill-opacity:1;fill-rule:nonzero;stroke:none"
         d="m 0,0 c 0,0 -1.968,0.707 -2.221,5.047 h -5.753 l -0.555,-5.955 4.29,-3.583 3.734,1.867 z" />
    </g>
    <g
       transform="matrix(0.15876311,0,0,-0.15876311,51.560128,146.3477)"
       id="g246">
      <path
         id="path248"
         style="fill:#1e394c;fill-opacity:1;fill-rule:nonzero;stroke:none"
         d="m 0,0 c 0,0 6.712,-2.221 8.529,0.908 0,0 12.403,-4.621 12.313,-5.998 C 20.7,-7.272 10.446,-7.721 8.175,-7.166 L 6.208,-5.197 5.35,-7.469 h -5.653 c 0,0 0.051,7.115 0.303,7.469" />
    </g>
    <g
       transform="matrix(0.15876311,0,0,-0.15876311,49.505515,146.21097)"
       id="g250">
      <path
         id="path252"
         style="fill:#f2bf75;fill-opacity:1;fill-rule:nonzero;stroke:none"
         d="m 0,0 c 0,0 -1.934,0.796 -1.986,5.144 l -5.747,0.263 -0.828,-5.923 4.12,-3.776 3.816,1.694 z" />
    </g>
    <g
       transform="matrix(0.15876311,0,0,-0.15876311,48.146327,146.29281)"
       id="g254">
      <path
         id="path256"
         style="fill:#1e394c;fill-opacity:1;fill-rule:nonzero;stroke:none"
         d="m 0,0 c 0,0 6.603,-2.526 8.561,0.516 0,0 10.854,-3.91 11.478,-5.706 C 20.664,-6.987 10.08,-8.192 7.837,-7.534 L 5.961,-5.478 5,-7.706 -0.646,-7.447 c 0,0 0.377,7.106 0.646,7.447" />
    </g>
    <g
       transform="matrix(0.15876311,0,0,-0.15876311,47.530116,135.3874)"
       id="g258">
      <path
         id="path260"
         style="fill:#1e394c;fill-opacity:1;fill-rule:nonzero;stroke:none"
         d="m 0,0 c 0,0 3.734,-15.139 4.643,-17.663 0.908,-2.523 2.826,-14.836 2.927,-15.24 0.101,-0.404 -4.239,-32.096 -4.239,-32.096 0,0 5.854,-1.311 8.175,0.203 l 6.359,31.994 -2.725,31.49 z" />
    </g>
    <g
       transform="matrix(0.15876311,0,0,-0.15876311,47.658332,135.25916)"
       id="g262">
      <path
         id="path264"
         style="fill:#1e394c;fill-opacity:1;fill-rule:nonzero;stroke:none"
         d="m 0,0 c 0,0 5.753,-9.841 10.9,-14.231 5.148,-4.391 11.506,-16.199 11.506,-16.199 l 0.757,-35.123 c 2.47,-1.501 5.549,-1.58 8.093,-0.208 l 0.386,0.208 c 0,0 0.908,36.485 0.756,38.907 -0.151,2.423 -13.02,30.279 -13.02,30.279 z" />
    </g>
    <g
       transform="matrix(0.15876311,0,0,-0.15876311,51.19159,125.01996)"
       id="g266">
      <path
         id="path268"
         style="fill:#1e394c;fill-opacity:1;fill-rule:nonzero;stroke:none"
         d="m 0,0 c 0,0 -4.504,-15.903 -11.733,-15.442 -6.333,0.403 -7.511,6.97 -5.98,15.064 1.589,8.402 8.528,7.292 12.566,7.342 0,0 4.996,0 5.828,3.861 C 0.681,10.825 6.51,2.876 0,0" />
    </g>
    <g
       transform="matrix(0.15876311,0,0,-0.15876311,49.36845,128.09784)"
       id="g270">
      <path
         id="path272"
         style="fill:#aac6ce;fill-opacity:1;fill-rule:nonzero;stroke:none"
         d="m 0,0 c 0,0 -8.813,1.562 -12.891,-17.25 -1.712,-7.898 7.267,-20.288 7.267,-20.288 l 9.386,18.067 z" />
    </g>
    <g
       transform="matrix(0.15876311,0,0,-0.15876311,55.241596,126.40201)"
       id="g274">
      <path
         id="path276"
         style="fill:#f2bf75;fill-opacity:1;fill-rule:nonzero;stroke:none"
         d="m 0,0 c 0,0 3.331,9.159 3.331,11.657 0,2.498 1.892,0.303 1.816,-1.59 C 5.072,8.175 4.618,6.056 4.618,6.056 c 0,0 2.573,-0.227 2.573,-1.438 0,-1.212 -0.833,-5.451 -2.044,-6.132 z" />
    </g>
    <g
       transform="matrix(0.15876311,0,0,-0.15876311,50.146048,128.30088)"
       id="g278">
      <path
         id="path280"
         style="fill:#cee5ed;fill-opacity:1;fill-rule:nonzero;stroke:none"
         d="m 0,0 c 5.853,-3.011 18.394,-10.9 21.271,-8.326 2.876,2.573 10.824,20.286 10.824,20.286 l 5.148,-1.514 c 0,0 -11.002,-29.521 -14.257,-29.446 -3.255,0.076 -14.331,2.221 -14.331,2.221 0,0 -1.01,-20.842 -4.038,-26.595 0,0 -14.912,-5.375 -22.633,-0.984 0,0 6.357,8.168 4.693,20.211 C -15.064,-11.543 -11.695,6.018 0,0" />
    </g>
    <g
       transform="matrix(0.15876311,0,0,-0.15876311,51.19159,125.01996)"
       id="g282">
      <path
         id="path284"
         style="fill:#ea9249;fill-opacity:1;fill-rule:nonzero;stroke:none"
         d="M 0,0 C 0,0 0.53,-2.801 1.363,-4.087 2.195,-5.375 4.012,-6.661 4.012,-6.661 L 2.574,-8.478 c 0,0 1.059,-6.358 -5.678,-7.57 l -0.681,-6.283 -7.645,2.574 -0.303,4.315 c 0,0 1.249,1.324 1.325,2.725 0,0 -1.514,1.476 -1.022,3.217 0.492,1.741 2.044,3.066 2.763,2.422 0.719,-0.643 0.794,-1.93 0.794,-1.93 h 0.985 c 0,0 -0.173,2.882 0.416,4.088 C -5.677,-3.293 -3.633,-0.833 0,0" />
    </g>
    <g
       transform="matrix(0.15876311,0,0,-0.15876311,50.590708,128.56521)"
       id="g286">
      <path
         id="path288"
         style="fill:#f2bf75;fill-opacity:1;fill-rule:nonzero;stroke:none"
         d="m 0,0 0.681,6.283 c 6.737,1.211 5.677,7.57 5.677,7.57 l 1.439,1.816 c 0,0 -1.817,1.287 -2.65,2.574 C 4.314,19.53 3.785,22.331 3.785,22.331 3.478,22.26 3.199,22.164 2.915,22.072 3.396,20.747 4.081,18.565 4.239,16.506 4.489,13.256 3.975,9.583 -0.574,6.819 -2.116,5.881 -2.674,3.336 -2.843,0.957 Z" />
    </g>
    <g
       transform="matrix(0.15876311,0,0,-0.15876311,50.190558,138.56849)"
       id="g290">
      <path
         id="path292"
         style="fill:#0f2a3f;fill-opacity:1;fill-rule:nonzero;stroke:none"
         d="m 0,0 c -5.031,1.138 -9.786,4.148 -13.456,7.084 -1.202,4.532 -2.745,10.733 -3.181,12.478 0.575,-0.213 1.181,-0.383 1.798,-0.521 1.915,-3.053 6.01,-9.212 9.786,-12.425 1.617,-1.383 3.351,-3.499 4.978,-5.744 z" />
    </g>
    <g
       id="g294"
       transform="matrix(0.15876311,0,0,-0.15876311,31.269465,181.343)">
      <g
         id="g296" />
      <g
         id="g308">
        <g
           id="g306"
           opacity="0.429993"
           clip-path="url(#clipPath300-7-4-7-3-3)">
          <g
             id="g304"
             transform="translate(190.3452,235.3154)">
            <path
               id="path302"
               style="fill:#cee5ed;fill-opacity:1;fill-rule:nonzero;stroke:none"
               d="m 0,0 c -0.071,2.391 -11.828,6.511 -26.26,9.201 -14.432,2.692 -26.073,2.936 -26.002,0.545 0.071,-2.39 11.828,-6.51 26.26,-9.201 C -11.57,-2.146 0.071,-2.39 0,0" />
          </g>
        </g>
      </g>
    </g>
    <g
       transform="matrix(0.15876311,0,0,-0.15876311,43.625306,137.76765)"
       id="g310">
      <path
         id="path312"
         style="fill:#34648c;fill-opacity:1;fill-rule:nonzero;stroke:none"
         d="M 0,0 C 0,0 3.538,30.856 -9.237,26.041 -22.398,21.081 -5.896,0.687 0,0" />
    </g>
    <g
       transform="matrix(0.15876311,0,0,-0.15876311,43.071419,140.72416)"
       id="g314">
      <path
         id="path316"
         style="fill:#67b8ef;fill-opacity:1;fill-rule:nonzero;stroke:none"
         d="M 0,0 C 0,0 -3.873,30.881 -15.108,22.332 -25.279,14.593 -7.517,2.285 0,0" />
    </g>
    <g
       transform="matrix(0.15876311,0,0,-0.15876311,41.751932,138.8846)"
       id="g318">
      <path
         id="path320"
         style="fill:#1e394c;fill-opacity:1;fill-rule:nonzero;stroke:none"
         d="m 0,0 c 5.136,-7.126 10.131,-14.368 11.725,-23.182 0.084,-0.467 0.798,-0.269 0.713,0.198 C 10.834,-14.116 5.816,-6.81 0.639,0.374 0.363,0.756 -0.279,0.387 0,0" />
    </g>
    <g
       transform="matrix(0.15876311,0,0,-0.15876311,44.623764,136.72239)"
       id="g322">
      <path
         id="path324"
         style="fill:#67b8ef;fill-opacity:1;fill-rule:nonzero;stroke:none"
         d="M 0,0 C 0,0 -4.619,22.7 7.076,20.636 18.77,18.573 2.948,1.081 0,0" />
    </g>
    <g
       transform="matrix(0.15876311,0,0,-0.15876311,44.795404,140.20152)"
       id="g326">
      <path
         id="path328"
         style="fill:#34648c;fill-opacity:1;fill-rule:nonzero;stroke:none"
         d="M 0,0 C -0.595,-0.397 -1.179,19.163 7.075,18.475 15.33,17.787 11.498,7.665 0,0" />
    </g>
    <g
       transform="matrix(0.15876311,0,0,-0.15876311,44.222147,139.9509)"
       id="g330">
      <path
         id="path332"
         style="fill:#1e394c;fill-opacity:1;fill-rule:nonzero;stroke:none"
         d="M 0,0 C -0.899,11.504 3.88,24.465 8.338,34.946 8.522,35.379 7.885,35.756 7.699,35.319 3.167,24.666 -1.657,11.739 -0.74,0 -0.704,-0.472 0.037,-0.476 0,0" />
    </g>
    <g
       transform="matrix(0.15876311,0,0,-0.15876311,44.389037,142.26963)"
       id="g334">
      <path
         id="path336"
         style="fill:#1e394c;fill-opacity:1;fill-rule:nonzero;stroke:none"
         d="m 0,0 c -0.594,13.493 -1.783,27.193 -9.342,38.796 -0.259,0.397 -0.9,0.027 -0.639,-0.374 C -2.486,26.917 -1.33,13.375 -0.74,0 -0.719,-0.475 0.021,-0.477 0,0" />
    </g>
    <g
       transform="matrix(0.15876311,0,0,-0.15876311,44.664632,142.17584)"
       id="g338">
      <path
         id="path340"
         style="fill:#1e394c;fill-opacity:1;fill-rule:nonzero;stroke:none"
         d="M 0,0 C 0.305,7.099 0.777,14.188 4.684,20.348 4.94,20.751 4.299,21.123 4.045,20.721 0.081,14.472 -0.431,7.211 -0.74,0 -0.761,-0.477 -0.021,-0.476 0,0" />
    </g>
    <g
       transform="matrix(0.15876311,0,0,-0.15876311,42.598158,141.94171)"
       id="g342">
      <path
         id="path344"
         style="fill:#cee5ed;fill-opacity:1;fill-rule:nonzero;stroke:none"
         d="m 0,0 1.921,-17.395 c 0.24,-2.173 2.078,-3.819 4.266,-3.819 h 11.087 c 2.188,0 4.025,1.646 4.266,3.819 L 23.46,0 c 0.105,0.946 -0.636,1.773 -1.588,1.773 H 1.588 C 0.636,1.773 -0.104,0.946 0,0" />
    </g>
    <g
       transform="matrix(0.15876311,0,0,-0.15876311,46.070626,141.66016)"
       id="g346">
      <path
         id="path348"
         style="fill:#aac6ce;fill-opacity:1;fill-rule:nonzero;stroke:none"
         d="m 0,0 h -7.033 c 0.952,0 1.693,-0.827 1.589,-1.773 l -1.921,-17.395 c -0.24,-2.174 -2.078,-3.819 -4.266,-3.819 h 7.033 c 2.188,0 4.025,1.645 4.265,3.819 L 1.588,-1.773 C 1.693,-0.827 0.952,0 0,0" />
    </g>
    <g
       id="g350"
       transform="matrix(0.15876311,0,0,-0.15876311,31.269465,181.343)">
      <g
         id="g352" />
      <g
         id="g364">
        <g
           id="g362"
           opacity="0.259995"
           clip-path="url(#clipPath356-9-0-9-7-4)">
          <g
             id="g360"
             transform="translate(73.4824,276.8481)">
            <path
               id="path358"
               style="fill:#0f2a3f;fill-opacity:1;fill-rule:nonzero;stroke:none"
               d="m 0,0 c 1.651,-1.363 3.198,-2.247 4.343,-2.38 0,0 3.511,30.648 -9.118,26.077 C -1.401,19.474 5.802,8.727 0,0" />
          </g>
        </g>
      </g>
    </g>
    <g
       id="g366"
       transform="matrix(0.15876311,0,0,-0.15876311,31.269465,181.343)">
      <g
         id="g368" />
      <g
         id="g380">
        <g
           id="g378"
           opacity="0.259995"
           clip-path="url(#clipPath372-2-6-2-2-4)">
          <g
             id="g376"
             transform="translate(92.9829,277.5239)">
            <path
               id="path374"
               style="fill:#0f2a3f;fill-opacity:1;fill-rule:nonzero;stroke:none"
               d="m 0,0 c 0.282,-3.887 0.243,-14.158 -8.046,-13.541 -0.139,-2.852 0.059,-4.979 0.259,-4.845 C 3.364,-10.952 7.304,-1.208 0,0" />
          </g>
        </g>
      </g>
    </g>
    <g
       id="g382"
       transform="matrix(0.15876311,0,0,-0.15876311,31.269465,181.343)">
      <g
         id="g384" />
      <g
         id="g396">
        <g
           id="g394"
           opacity="0.419998"
           clip-path="url(#clipPath388-9-0-9-0-9)">
          <g
             id="g392"
             transform="translate(91.751,301.5571)">
            <path
               id="path390"
               style="fill:#34648c;fill-opacity:1;fill-rule:nonzero;stroke:none"
               d="m 0,0 c 0.257,-4.024 0.197,-15.186 -8.396,-14.737 0.253,-3.264 0.76,-5.768 0.76,-5.768 C -4.739,-19.443 10.572,-2.542 0,0" />
          </g>
        </g>
      </g>
    </g>
    <g
       id="g398"
       transform="matrix(0.15876311,0,0,-0.15876311,31.269465,181.343)">
      <g
         id="g400" />
      <g
         id="g412">
        <g
           id="g410"
           opacity="0.419998"
           clip-path="url(#clipPath404-3-3-3-3-8)">
          <g
             id="g408"
             transform="translate(74.3374,255.8457)">
            <path
               id="path406"
               style="fill:#34648c;fill-opacity:1;fill-rule:nonzero;stroke:none"
               d="M 0,0 C 0,0 -3.873,30.881 -15.109,22.332 -15.466,22.06 -15.781,21.781 -16.071,21.499 -12.561,20.288 -0.988,15.22 -4.766,2.09 -2.998,1.133 -1.336,0.406 0,0" />
          </g>
        </g>
      </g>
    </g>
    <path
       id="path1327"
       d="M 119.96754,202.71888 104.62967,-2.0907567 H 85.457359 V 202.71888 Z"
       fill-opacity="1"
       fill="#0099ff"
       style="fill:#005654;fill-opacity:1;stroke:none;stroke-width:0.130549" />
    <circle
       r="4.8997211"
       cy="100.69042"
       cx="50.397602"
       id="path1336"
       style="fill:#004d42;fill-opacity:1;stroke-width:0.18;stroke-dasharray:1.44, 1.43999999999999995;stroke:#dddddd;stroke-opacity:1;stroke-miterlimit:4;stroke-dashoffset:0" />
    <path
       id="path1338"
       d="m 49.076893,103.135 c 0,0.0328 -0.03762,0.0589 -0.08505,0.0589 -0.05398,0.005 -0.0916,-0.0213 -0.0916,-0.0589 0,-0.0327 0.03761,-0.0589 0.08505,-0.0589 0.04908,-0.005 0.0916,0.0213 0.0916,0.0589 z m -0.508712,-0.0736 c -0.01145,0.0328 0.02126,0.0704 0.07034,0.0802 0.04253,0.0163 0.0916,0 0.101412,-0.0327 0.0097,-0.0328 -0.02126,-0.0704 -0.07034,-0.085 -0.04253,-0.0113 -0.08996,0.005 -0.101412,0.0376 z m 0.72299,-0.0278 c -0.04744,0.0114 -0.08015,0.0425 -0.07524,0.0802 0.005,0.0328 0.04744,0.054 0.0965,0.0425 0.04744,-0.0114 0.08015,-0.0425 0.07524,-0.0752 -0.005,-0.0311 -0.04908,-0.0523 -0.0965,-0.0474 z m 1.076306,-6.268104 c -2.268748,0 -4.004251,1.722418 -4.004251,3.991164 0,1.81402 1.141735,3.36633 2.772552,3.91265 0.209372,0.0376 0.28298,-0.0915 0.28298,-0.19793 0,-0.10143 -0.005,-0.66082 -0.005,-1.00432 0,0 -1.145008,0.24536 -1.385458,-0.48745 0,0 -0.186473,-0.476 -0.454731,-0.59867 0,0 -0.374581,-0.25681 0.02617,-0.25191 0,0 0.407296,0.0327 0.631389,0.42202 0.358223,0.63139 0.958534,0.44983 1.192443,0.34188 0.03762,-0.26172 0.143942,-0.44329 0.261715,-0.55125 -0.914369,-0.10141 -1.836917,-0.2339 -1.836917,-1.80747 0,-0.44984 0.124315,-0.675557 0.386031,-0.963448 -0.04252,-0.106318 -0.181566,-0.5447 0.04253,-1.110656 0.341867,-0.106317 1.128648,0.441644 1.128648,0.441644 0.327147,-0.0916 0.678826,-0.13904 1.027235,-0.13904 0.348411,0 0.70009,0.0474 1.027235,0.13904 0,0 0.786781,-0.549605 1.128649,-0.441644 0.224094,0.567593 0.08505,1.004335 0.04253,1.110656 0.261715,0.289521 0.422015,0.515248 0.422015,0.963448 0,1.57847 -0.96344,1.70442 -1.87781,1.80747 0.150488,0.12922 0.278074,0.37457 0.278074,0.75898 0,0.55123 -0.005,1.23333 -0.005,1.36745 0,0.10633 0.07524,0.23555 0.28298,0.19793 1.635722,-0.54305 2.744742,-2.09536 2.744742,-3.90938 0,-2.268746 -1.840187,-3.991164 -4.108936,-3.991164 z m -2.414328,5.641614 c -0.02126,0.0163 -0.01635,0.054 0.01146,0.0851 0.02617,0.0262 0.06379,0.0376 0.08505,0.0163 0.02126,-0.0163 0.01635,-0.054 -0.01145,-0.0851 -0.02617,-0.0262 -0.06379,-0.0376 -0.08506,-0.0163 z m -0.176658,-0.13248 c -0.01144,0.0213 0.005,0.0474 0.03762,0.0638 0.02617,0.0163 0.05889,0.0114 0.07034,-0.0115 0.01145,-0.0213 -0.005,-0.0475 -0.03762,-0.0638 -0.03271,-0.0101 -0.05889,-0.005 -0.07034,0.0114 z m 0.529974,0.58232 c -0.02617,0.0213 -0.01635,0.0704 0.02126,0.10145 0.03762,0.0376 0.08505,0.0425 0.106319,0.0163 0.02126,-0.0213 0.01145,-0.0704 -0.02126,-0.10145 -0.03598,-0.0376 -0.08505,-0.0425 -0.106319,-0.0163 z m -0.186471,-0.24045 c -0.02617,0.0163 -0.02617,0.0589 0,0.0965 0.02617,0.0376 0.07034,0.054 0.0916,0.0376 0.02617,-0.0213 0.02617,-0.0638 0,-0.10145 -0.02289,-0.0376 -0.06544,-0.054 -0.0916,-0.0327 z"
       style="fill:#dddddd;fill-opacity:1;stroke-width:0.0163573" />
  </g>
</svg>
